  0
SECTION
  2
HEADER
  9
$ACADVER
  1
AC1009
  9
$FILLMODE
 70
 0
  9
$SPLFRAME
 70
 1
  9
$EXTMIN
 10
0
 20
0
 30
0.0
  9
$EXTMAX
 10
1058.33
 20
1058.33
 30
0.0
  0
ENDSEC
  0
SECTION
  2
TABLES
  0
TABLE
  2
LAYER
 70
1
  0
LAYER
  2
0
 70
     0
 62
     7
  6
CONTINUOUS
  0
ENDTAB
  0
ENDSEC
  0
SECTION
  2
ENTITIES
  0
LINE
  8
0
 62
     0
 10
356.761
 20
133.96
 30
0.0
 11
356.835
 21
133.958
 31
0.0
  0
LINE
  8
0
 62
     0
 10
356.835
 20
133.958
 30
0.0
 11
356.916
 21
133.948
 31
0.0
  0
LINE
  8
0
 62
     0
 10
356.916
 20
133.948
 30
0.0
 11
356.993
 21
133.933
 31
0.0
  0
LINE
  8
0
 62
     0
 10
356.993
 20
133.933
 30
0.0
 11
357.068
 21
133.912
 31
0.0
  0
LINE
  8
0
 62
     0
 10
357.068
 20
133.912
 30
0.0
 11
357.142
 21
133.885
 31
0.0
  0
LINE
  8
0
 62
     0
 10
357.142
 20
133.885
 30
0.0
 11
357.212
 21
133.852
 31
0.0
  0
LINE
  8
0
 62
     0
 10
357.212
 20
133.852
 30
0.0
 11
357.279
 21
133.813
 31
0.0
  0
LINE
  8
0
 62
     0
 10
357.279
 20
133.813
 30
0.0
 11
357.346
 21
133.77
 31
0.0
  0
LINE
  8
0
 62
     0
 10
357.346
 20
133.77
 30
0.0
 11
357.41
 21
133.721
 31
0.0
  0
LINE
  8
0
 62
     0
 10
357.41
 20
133.721
 30
0.0
 11
357.466
 21
133.668
 31
0.0
  0
LINE
  8
0
 62
     0
 10
357.466
 20
133.668
 30
0.0
 11
357.519
 21
133.61
 31
0.0
  0
LINE
  8
0
 62
     0
 10
357.519
 20
133.61
 30
0.0
 11
357.569
 21
133.549
 31
0.0
  0
LINE
  8
0
 62
     0
 10
357.569
 20
133.549
 30
0.0
 11
357.611
 21
133.484
 31
0.0
  0
LINE
  8
0
 62
     0
 10
357.611
 20
133.484
 30
0.0
 11
357.65
 21
133.413
 31
0.0
  0
LINE
  8
0
 62
     0
 10
357.65
 20
133.413
 30
0.0
 11
357.681
 21
133.343
 31
0.0
  0
LINE
  8
0
 62
     0
 10
357.681
 20
133.343
 30
0.0
 11
357.71
 21
133.27
 31
0.0
  0
LINE
  8
0
 62
     0
 10
357.71
 20
133.27
 30
0.0
 11
357.731
 21
133.194
 31
0.0
  0
LINE
  8
0
 62
     0
 10
357.731
 20
133.194
 30
0.0
 11
357.748
 21
133.117
 31
0.0
  0
LINE
  8
0
 62
     0
 10
357.748
 20
133.117
 30
0.0
 11
357.755
 21
133.038
 31
0.0
  0
LINE
  8
0
 62
     0
 10
357.755
 20
133.038
 30
0.0
 11
357.759
 21
132.96
 31
0.0
  0
LINE
  8
0
 62
     0
 10
357.759
 20
132.96
 30
0.0
 11
357.759
 21
1.13412
 31
0.0
  0
LINE
  8
0
 62
     0
 10
357.759
 20
1.13412
 30
0.0
 11
357.755
 21
1.05558
 31
0.0
  0
LINE
  8
0
 62
     0
 10
357.755
 20
1.05558
 30
0.0
 11
357.748
 21
0.978408
 31
0.0
  0
LINE
  8
0
 62
     0
 10
357.748
 20
0.978408
 30
0.0
 11
357.731
 21
0.901238
 31
0.0
  0
LINE
  8
0
 62
     0
 10
357.731
 20
0.901238
 30
0.0
 11
357.71
 21
0.825444
 31
0.0
  0
LINE
  8
0
 62
     0
 10
357.71
 20
0.825444
 30
0.0
 11
357.681
 21
0.752408
 31
0.0
  0
LINE
  8
0
 62
     0
 10
357.681
 20
0.752408
 30
0.0
 11
357.65
 21
0.680752
 31
0.0
  0
LINE
  8
0
 62
     0
 10
357.65
 20
0.680752
 30
0.0
 11
357.611
 21
0.611851
 31
0.0
  0
LINE
  8
0
 62
     0
 10
357.611
 20
0.611851
 30
0.0
 11
357.569
 21
0.547081
 31
0.0
  0
LINE
  8
0
 62
     0
 10
357.569
 20
0.547081
 30
0.0
 11
357.519
 21
0.485069
 31
0.0
  0
LINE
  8
0
 62
     0
 10
357.519
 20
0.485069
 30
0.0
 11
357.466
 21
0.427193
 31
0.0
  0
LINE
  8
0
 62
     0
 10
357.466
 20
0.427193
 30
0.0
 11
357.41
 21
0.373447
 31
0.0
  0
LINE
  8
0
 62
     0
 10
357.41
 20
0.373447
 30
0.0
 11
357.346
 21
0.325217
 31
0.0
  0
LINE
  8
0
 62
     0
 10
357.346
 20
0.325217
 30
0.0
 11
357.279
 21
0.282498
 31
0.0
  0
LINE
  8
0
 62
     0
 10
357.279
 20
0.282498
 30
0.0
 11
357.212
 21
0.242535
 31
0.0
  0
LINE
  8
0
 62
     0
 10
357.212
 20
0.242535
 30
0.0
 11
357.142
 21
0.21084
 31
0.0
  0
LINE
  8
0
 62
     0
 10
357.142
 20
0.21084
 30
0.0
 11
357.068
 21
0.183279
 31
0.0
  0
LINE
  8
0
 62
     0
 10
357.068
 20
0.183279
 30
0.0
 11
356.993
 21
0.162609
 31
0.0
  0
LINE
  8
0
 62
     0
 10
356.993
 20
0.162609
 30
0.0
 11
356.916
 21
0.14745
 31
0.0
  0
LINE
  8
0
 62
     0
 10
356.916
 20
0.14745
 30
0.0
 11
356.835
 21
0.137804
 31
0.0
  0
LINE
  8
0
 62
     0
 10
356.835
 20
0.137804
 30
0.0
 11
356.761
 21
0.13367
 31
0.0
  0
LINE
  8
0
 62
     0
 10
356.761
 20
0.13367
 30
0.0
 11
1.09554
 21
0.13367
 31
0.0
  0
LINE
  8
0
 62
     0
 10
1.09554
 20
0.13367
 30
0.0
 11
1.01699
 21
0.137804
 31
0.0
  0
LINE
  8
0
 62
     0
 10
1.01699
 20
0.137804
 30
0.0
 11
0.938445
 21
0.14745
 31
0.0
  0
LINE
  8
0
 62
     0
 10
0.938445
 20
0.14745
 30
0.0
 11
0.861275
 21
0.162609
 31
0.0
  0
LINE
  8
0
 62
     0
 10
0.861275
 20
0.162609
 30
0.0
 11
0.785481
 21
0.183279
 31
0.0
  0
LINE
  8
0
 62
     0
 10
0.785481
 20
0.183279
 30
0.0
 11
0.712445
 21
0.21084
 31
0.0
  0
LINE
  8
0
 62
     0
 10
0.712445
 20
0.21084
 30
0.0
 11
0.642165
 21
0.242535
 31
0.0
  0
LINE
  8
0
 62
     0
 10
0.642165
 20
0.242535
 30
0.0
 11
0.571885
 21
0.282498
 31
0.0
  0
LINE
  8
0
 62
     0
 10
0.571885
 20
0.282498
 30
0.0
 11
0.507118
 21
0.325217
 31
0.0
  0
LINE
  8
0
 62
     0
 10
0.507118
 20
0.325217
 30
0.0
 11
0.445107
 21
0.373447
 31
0.0
  0
LINE
  8
0
 62
     0
 10
0.445107
 20
0.373447
 30
0.0
 11
0.38723
 21
0.427193
 31
0.0
  0
LINE
  8
0
 62
     0
 10
0.38723
 20
0.427193
 30
0.0
 11
0.334863
 21
0.485069
 31
0.0
  0
LINE
  8
0
 62
     0
 10
0.334863
 20
0.485069
 30
0.0
 11
0.285254
 21
0.547081
 31
0.0
  0
LINE
  8
0
 62
     0
 10
0.285254
 20
0.547081
 30
0.0
 11
0.242535
 21
0.611851
 31
0.0
  0
LINE
  8
0
 62
     0
 10
0.242535
 20
0.611851
 30
0.0
 11
0.20395
 21
0.680752
 31
0.0
  0
LINE
  8
0
 62
     0
 10
0.20395
 20
0.680752
 30
0.0
 11
0.170877
 21
0.752408
 31
0.0
  0
LINE
  8
0
 62
     0
 10
0.170877
 20
0.752408
 30
0.0
 11
0.143316
 21
0.825444
 31
0.0
  0
LINE
  8
0
 62
     0
 10
0.143316
 20
0.825444
 30
0.0
 11
0.122645
 21
0.901238
 31
0.0
  0
LINE
  8
0
 62
     0
 10
0.122645
 20
0.901238
 30
0.0
 11
0.107487
 21
0.978408
 31
0.0
  0
LINE
  8
0
 62
     0
 10
0.107487
 20
0.978408
 30
0.0
 11
0.0978408
 21
1.05558
 31
0.0
  0
LINE
  8
0
 62
     0
 10
0.0978408
 20
1.05558
 30
0.0
 11
0.0950846
 21
1.1355
 31
0.0
  0
LINE
  8
0
 62
     0
 10
0.0950846
 20
1.1355
 30
0.0
 11
0.0950846
 21
132.96
 31
0.0
  0
LINE
  8
0
 62
     0
 10
0.0950846
 20
132.96
 30
0.0
 11
0.0978408
 21
133.038
 31
0.0
  0
LINE
  8
0
 62
     0
 10
0.0978408
 20
133.038
 30
0.0
 11
0.107487
 21
133.117
 31
0.0
  0
LINE
  8
0
 62
     0
 10
0.107487
 20
133.117
 30
0.0
 11
0.122645
 21
133.194
 31
0.0
  0
LINE
  8
0
 62
     0
 10
0.122645
 20
133.194
 30
0.0
 11
0.143316
 21
133.27
 31
0.0
  0
LINE
  8
0
 62
     0
 10
0.143316
 20
133.27
 30
0.0
 11
0.170877
 21
133.343
 31
0.0
  0
LINE
  8
0
 62
     0
 10
0.170877
 20
133.343
 30
0.0
 11
0.20395
 21
133.413
 31
0.0
  0
LINE
  8
0
 62
     0
 10
0.20395
 20
133.413
 30
0.0
 11
0.242535
 21
133.484
 31
0.0
  0
LINE
  8
0
 62
     0
 10
0.242535
 20
133.484
 30
0.0
 11
0.285254
 21
133.549
 31
0.0
  0
LINE
  8
0
 62
     0
 10
0.285254
 20
133.549
 30
0.0
 11
0.334863
 21
133.61
 31
0.0
  0
LINE
  8
0
 62
     0
 10
0.334863
 20
133.61
 30
0.0
 11
0.38723
 21
133.668
 31
0.0
  0
LINE
  8
0
 62
     0
 10
0.38723
 20
133.668
 30
0.0
 11
0.445107
 21
133.721
 31
0.0
  0
LINE
  8
0
 62
     0
 10
0.445107
 20
133.721
 30
0.0
 11
0.507118
 21
133.77
 31
0.0
  0
LINE
  8
0
 62
     0
 10
0.507118
 20
133.77
 30
0.0
 11
0.571885
 21
133.813
 31
0.0
  0
LINE
  8
0
 62
     0
 10
0.571885
 20
133.813
 30
0.0
 11
0.642165
 21
133.852
 31
0.0
  0
LINE
  8
0
 62
     0
 10
0.642165
 20
133.852
 30
0.0
 11
0.712445
 21
133.885
 31
0.0
  0
LINE
  8
0
 62
     0
 10
0.712445
 20
133.885
 30
0.0
 11
0.785481
 21
133.912
 31
0.0
  0
LINE
  8
0
 62
     0
 10
0.785481
 20
133.912
 30
0.0
 11
0.861275
 21
133.933
 31
0.0
  0
LINE
  8
0
 62
     0
 10
0.861275
 20
133.933
 30
0.0
 11
0.938445
 21
133.948
 31
0.0
  0
LINE
  8
0
 62
     0
 10
0.938445
 20
133.948
 30
0.0
 11
1.01699
 21
133.958
 31
0.0
  0
LINE
  8
0
 62
     0
 10
1.01699
 20
133.958
 30
0.0
 11
1.09554
 21
133.96
 31
0.0
  0
LINE
  8
0
 62
     0
 10
1.09554
 20
133.96
 30
0.0
 11
356.761
 21
133.96
 31
0.0
  0
LINE
  8
0
 62
     0
 10
354.764
 20
4.15618
 30
0.0
 11
354.319
 21
3.92878
 31
0.0
  0
LINE
  8
0
 62
     0
 10
354.319
 20
3.92878
 30
0.0
 11
353.963
 21
3.57463
 31
0.0
  0
LINE
  8
0
 62
     0
 10
353.963
 20
3.57463
 30
0.0
 11
353.737
 21
3.12952
 31
0.0
  0
LINE
  8
0
 62
     0
 10
353.737
 20
3.12952
 30
0.0
 11
353.66
 21
2.63343
 31
0.0
  0
LINE
  8
0
 62
     0
 10
353.66
 20
2.63343
 30
0.0
 11
353.737
 21
2.14009
 31
0.0
  0
LINE
  8
0
 62
     0
 10
353.737
 20
2.14009
 30
0.0
 11
353.963
 21
1.69361
 31
0.0
  0
LINE
  8
0
 62
     0
 10
353.963
 20
1.69361
 30
0.0
 11
354.319
 21
1.33945
 31
0.0
  0
LINE
  8
0
 62
     0
 10
354.319
 20
1.33945
 30
0.0
 11
354.764
 21
1.11345
 31
0.0
  0
LINE
  8
0
 62
     0
 10
354.764
 20
1.11345
 30
0.0
 11
355.258
 21
1.03353
 31
0.0
  0
LINE
  8
0
 62
     0
 10
355.258
 20
1.03353
 30
0.0
 11
355.752
 21
1.11345
 31
0.0
  0
LINE
  8
0
 62
     0
 10
355.752
 20
1.11345
 30
0.0
 11
356.2
 21
1.33945
 31
0.0
  0
LINE
  8
0
 62
     0
 10
356.2
 20
1.33945
 30
0.0
 11
356.553
 21
1.69361
 31
0.0
  0
LINE
  8
0
 62
     0
 10
356.553
 20
1.69361
 30
0.0
 11
356.782
 21
2.14009
 31
0.0
  0
LINE
  8
0
 62
     0
 10
356.782
 20
2.14009
 30
0.0
 11
356.859
 21
2.63343
 31
0.0
  0
LINE
  8
0
 62
     0
 10
356.859
 20
2.63343
 30
0.0
 11
356.782
 21
3.12952
 31
0.0
  0
LINE
  8
0
 62
     0
 10
356.782
 20
3.12952
 30
0.0
 11
356.553
 21
3.57463
 31
0.0
  0
LINE
  8
0
 62
     0
 10
356.553
 20
3.57463
 30
0.0
 11
356.2
 21
3.92878
 31
0.0
  0
LINE
  8
0
 62
     0
 10
356.2
 20
3.92878
 30
0.0
 11
355.752
 21
4.15618
 31
0.0
  0
LINE
  8
0
 62
     0
 10
355.752
 20
4.15618
 30
0.0
 11
355.258
 21
4.23471
 31
0.0
  0
LINE
  8
0
 62
     0
 10
355.258
 20
4.23471
 30
0.0
 11
354.764
 21
4.15618
 31
0.0
  0
LINE
  8
0
 62
     0
 10
237.21
 20
4.15618
 30
0.0
 11
236.764
 21
3.92878
 31
0.0
  0
LINE
  8
0
 62
     0
 10
236.764
 20
3.92878
 30
0.0
 11
236.409
 21
3.57463
 31
0.0
  0
LINE
  8
0
 62
     0
 10
236.409
 20
3.57463
 30
0.0
 11
236.182
 21
3.12952
 31
0.0
  0
LINE
  8
0
 62
     0
 10
236.182
 20
3.12952
 30
0.0
 11
236.105
 21
2.63343
 31
0.0
  0
LINE
  8
0
 62
     0
 10
236.105
 20
2.63343
 30
0.0
 11
236.182
 21
2.14009
 31
0.0
  0
LINE
  8
0
 62
     0
 10
236.182
 20
2.14009
 30
0.0
 11
236.409
 21
1.69361
 31
0.0
  0
LINE
  8
0
 62
     0
 10
236.409
 20
1.69361
 30
0.0
 11
236.764
 21
1.33945
 31
0.0
  0
LINE
  8
0
 62
     0
 10
236.764
 20
1.33945
 30
0.0
 11
237.21
 21
1.11345
 31
0.0
  0
LINE
  8
0
 62
     0
 10
237.21
 20
1.11345
 30
0.0
 11
237.705
 21
1.03353
 31
0.0
  0
LINE
  8
0
 62
     0
 10
237.705
 20
1.03353
 30
0.0
 11
238.198
 21
1.11345
 31
0.0
  0
LINE
  8
0
 62
     0
 10
238.198
 20
1.11345
 30
0.0
 11
238.645
 21
1.33945
 31
0.0
  0
LINE
  8
0
 62
     0
 10
238.645
 20
1.33945
 30
0.0
 11
238.999
 21
1.69361
 31
0.0
  0
LINE
  8
0
 62
     0
 10
238.999
 20
1.69361
 30
0.0
 11
239.226
 21
2.14009
 31
0.0
  0
LINE
  8
0
 62
     0
 10
239.226
 20
2.14009
 30
0.0
 11
239.305
 21
2.63343
 31
0.0
  0
LINE
  8
0
 62
     0
 10
239.305
 20
2.63343
 30
0.0
 11
239.226
 21
3.12952
 31
0.0
  0
LINE
  8
0
 62
     0
 10
239.226
 20
3.12952
 30
0.0
 11
238.999
 21
3.57463
 31
0.0
  0
LINE
  8
0
 62
     0
 10
238.999
 20
3.57463
 30
0.0
 11
238.645
 21
3.92878
 31
0.0
  0
LINE
  8
0
 62
     0
 10
238.645
 20
3.92878
 30
0.0
 11
238.198
 21
4.15618
 31
0.0
  0
LINE
  8
0
 62
     0
 10
238.198
 20
4.15618
 30
0.0
 11
237.705
 21
4.23471
 31
0.0
  0
LINE
  8
0
 62
     0
 10
237.705
 20
4.23471
 30
0.0
 11
237.21
 21
4.15618
 31
0.0
  0
LINE
  8
0
 62
     0
 10
119.655
 20
4.15618
 30
0.0
 11
119.21
 21
3.92878
 31
0.0
  0
LINE
  8
0
 62
     0
 10
119.21
 20
3.92878
 30
0.0
 11
118.856
 21
3.57463
 31
0.0
  0
LINE
  8
0
 62
     0
 10
118.856
 20
3.57463
 30
0.0
 11
118.627
 21
3.12952
 31
0.0
  0
LINE
  8
0
 62
     0
 10
118.627
 20
3.12952
 30
0.0
 11
118.55
 21
2.63343
 31
0.0
  0
LINE
  8
0
 62
     0
 10
118.55
 20
2.63343
 30
0.0
 11
118.627
 21
2.14009
 31
0.0
  0
LINE
  8
0
 62
     0
 10
118.627
 20
2.14009
 30
0.0
 11
118.856
 21
1.69361
 31
0.0
  0
LINE
  8
0
 62
     0
 10
118.856
 20
1.69361
 30
0.0
 11
119.21
 21
1.33945
 31
0.0
  0
LINE
  8
0
 62
     0
 10
119.21
 20
1.33945
 30
0.0
 11
119.655
 21
1.11345
 31
0.0
  0
LINE
  8
0
 62
     0
 10
119.655
 20
1.11345
 30
0.0
 11
120.15
 21
1.03353
 31
0.0
  0
LINE
  8
0
 62
     0
 10
120.15
 20
1.03353
 30
0.0
 11
120.643
 21
1.11345
 31
0.0
  0
LINE
  8
0
 62
     0
 10
120.643
 20
1.11345
 30
0.0
 11
121.09
 21
1.33945
 31
0.0
  0
LINE
  8
0
 62
     0
 10
121.09
 20
1.33945
 30
0.0
 11
121.444
 21
1.69361
 31
0.0
  0
LINE
  8
0
 62
     0
 10
121.444
 20
1.69361
 30
0.0
 11
121.671
 21
2.14009
 31
0.0
  0
LINE
  8
0
 62
     0
 10
121.671
 20
2.14009
 30
0.0
 11
121.75
 21
2.63343
 31
0.0
  0
LINE
  8
0
 62
     0
 10
121.75
 20
2.63343
 30
0.0
 11
121.671
 21
3.12952
 31
0.0
  0
LINE
  8
0
 62
     0
 10
121.671
 20
3.12952
 30
0.0
 11
121.444
 21
3.57463
 31
0.0
  0
LINE
  8
0
 62
     0
 10
121.444
 20
3.57463
 30
0.0
 11
121.09
 21
3.92878
 31
0.0
  0
LINE
  8
0
 62
     0
 10
121.09
 20
3.92878
 30
0.0
 11
120.643
 21
4.15618
 31
0.0
  0
LINE
  8
0
 62
     0
 10
120.643
 20
4.15618
 30
0.0
 11
120.15
 21
4.23471
 31
0.0
  0
LINE
  8
0
 62
     0
 10
120.15
 20
4.23471
 30
0.0
 11
119.655
 21
4.15618
 31
0.0
  0
LINE
  8
0
 62
     0
 10
2.10013
 20
4.15618
 30
0.0
 11
1.65503
 21
3.92878
 31
0.0
  0
LINE
  8
0
 62
     0
 10
1.65503
 20
3.92878
 30
0.0
 11
1.30087
 21
3.57463
 31
0.0
  0
LINE
  8
0
 62
     0
 10
1.30087
 20
3.57463
 30
0.0
 11
1.07349
 21
3.12952
 31
0.0
  0
LINE
  8
0
 62
     0
 10
1.07349
 20
3.12952
 30
0.0
 11
0.994943
 21
2.63343
 31
0.0
  0
LINE
  8
0
 62
     0
 10
0.994943
 20
2.63343
 30
0.0
 11
1.07349
 21
2.14009
 31
0.0
  0
LINE
  8
0
 62
     0
 10
1.07349
 20
2.14009
 30
0.0
 11
1.30087
 21
1.69361
 31
0.0
  0
LINE
  8
0
 62
     0
 10
1.30087
 20
1.69361
 30
0.0
 11
1.65503
 21
1.33945
 31
0.0
  0
LINE
  8
0
 62
     0
 10
1.65503
 20
1.33945
 30
0.0
 11
2.10013
 21
1.11345
 31
0.0
  0
LINE
  8
0
 62
     0
 10
2.10013
 20
1.11345
 30
0.0
 11
2.59485
 21
1.03353
 31
0.0
  0
LINE
  8
0
 62
     0
 10
2.59485
 20
1.03353
 30
0.0
 11
3.08956
 21
1.11345
 31
0.0
  0
LINE
  8
0
 62
     0
 10
3.08956
 20
1.11345
 30
0.0
 11
3.53603
 21
1.33945
 31
0.0
  0
LINE
  8
0
 62
     0
 10
3.53603
 20
1.33945
 30
0.0
 11
3.88881
 21
1.69361
 31
0.0
  0
LINE
  8
0
 62
     0
 10
3.88881
 20
1.69361
 30
0.0
 11
4.11621
 21
2.14009
 31
0.0
  0
LINE
  8
0
 62
     0
 10
4.11621
 20
2.14009
 30
0.0
 11
4.19612
 21
2.63343
 31
0.0
  0
LINE
  8
0
 62
     0
 10
4.19612
 20
2.63343
 30
0.0
 11
4.11621
 21
3.12952
 31
0.0
  0
LINE
  8
0
 62
     0
 10
4.11621
 20
3.12952
 30
0.0
 11
3.88881
 21
3.57463
 31
0.0
  0
LINE
  8
0
 62
     0
 10
3.88881
 20
3.57463
 30
0.0
 11
3.53603
 21
3.92878
 31
0.0
  0
LINE
  8
0
 62
     0
 10
3.53603
 20
3.92878
 30
0.0
 11
3.08956
 21
4.15618
 31
0.0
  0
LINE
  8
0
 62
     0
 10
3.08956
 20
4.15618
 30
0.0
 11
2.59485
 21
4.23471
 31
0.0
  0
LINE
  8
0
 62
     0
 10
2.59485
 20
4.23471
 30
0.0
 11
2.10013
 21
4.15618
 31
0.0
  0
LINE
  8
0
 62
     0
 10
129.063
 20
21.66
 30
0.0
 11
129.063
 21
16.9595
 31
0.0
  0
LINE
  8
0
 62
     0
 10
129.063
 20
16.9595
 30
0.0
 11
89.4387
 21
16.9595
 31
0.0
  0
LINE
  8
0
 62
     0
 10
89.4387
 20
16.9595
 30
0.0
 11
89.4387
 21
20.1896
 31
0.0
  0
LINE
  8
0
 62
     0
 10
89.4387
 20
20.1896
 30
0.0
 11
87.7136
 21
20.1896
 31
0.0
  0
LINE
  8
0
 62
     0
 10
87.7136
 20
20.1896
 30
0.0
 11
87.7136
 21
21.1102
 31
0.0
  0
LINE
  8
0
 62
     0
 10
87.7136
 20
21.1102
 30
0.0
 11
84.413
 21
21.1102
 31
0.0
  0
LINE
  8
0
 62
     0
 10
84.413
 20
21.1102
 30
0.0
 11
84.413
 21
20.1896
 31
0.0
  0
LINE
  8
0
 62
     0
 10
84.413
 20
20.1896
 30
0.0
 11
82.6879
 21
20.1896
 31
0.0
  0
LINE
  8
0
 62
     0
 10
82.6879
 20
20.1896
 30
0.0
 11
82.6879
 21
16.9595
 31
0.0
  0
LINE
  8
0
 62
     0
 10
82.6879
 20
16.9595
 30
0.0
 11
81.8638
 21
16.9595
 31
0.0
  0
LINE
  8
0
 62
     0
 10
81.8638
 20
16.9595
 30
0.0
 11
81.8638
 21
14.1607
 31
0.0
  0
LINE
  8
0
 62
     0
 10
81.8638
 20
14.1607
 30
0.0
 11
82.6879
 21
14.1607
 31
0.0
  0
LINE
  8
0
 62
     0
 10
82.6879
 20
14.1607
 30
0.0
 11
82.6879
 21
7.89065
 31
0.0
  0
LINE
  8
0
 62
     0
 10
82.6879
 20
7.89065
 30
0.0
 11
84.413
 21
7.89065
 31
0.0
  0
LINE
  8
0
 62
     0
 10
84.413
 20
7.89065
 30
0.0
 11
84.413
 21
6.90947
 31
0.0
  0
LINE
  8
0
 62
     0
 10
84.413
 20
6.90947
 30
0.0
 11
87.7136
 21
6.90947
 31
0.0
  0
LINE
  8
0
 62
     0
 10
87.7136
 20
6.90947
 30
0.0
 11
87.7136
 21
7.89065
 31
0.0
  0
LINE
  8
0
 62
     0
 10
87.7136
 20
7.89065
 30
0.0
 11
89.4387
 21
7.89065
 31
0.0
  0
LINE
  8
0
 62
     0
 10
89.4387
 20
7.89065
 30
0.0
 11
89.4387
 21
12.3596
 31
0.0
  0
LINE
  8
0
 62
     0
 10
89.4387
 20
12.3596
 30
0.0
 11
129.063
 21
12.3596
 31
0.0
  0
LINE
  8
0
 62
     0
 10
129.063
 20
12.3596
 30
0.0
 11
129.063
 21
7.6605
 31
0.0
  0
LINE
  8
0
 62
     0
 10
129.063
 20
7.6605
 30
0.0
 11
143.064
 21
7.6605
 31
0.0
  0
LINE
  8
0
 62
     0
 10
143.064
 20
7.6605
 30
0.0
 11
143.064
 21
12.3596
 31
0.0
  0
LINE
  8
0
 62
     0
 10
143.064
 20
12.3596
 30
0.0
 11
182.688
 21
12.3596
 31
0.0
  0
LINE
  8
0
 62
     0
 10
182.688
 20
12.3596
 30
0.0
 11
182.688
 21
7.89065
 31
0.0
  0
LINE
  8
0
 62
     0
 10
182.688
 20
7.89065
 30
0.0
 11
184.413
 21
7.89065
 31
0.0
  0
LINE
  8
0
 62
     0
 10
184.413
 20
7.89065
 30
0.0
 11
184.413
 21
6.90947
 31
0.0
  0
LINE
  8
0
 62
     0
 10
184.413
 20
6.90947
 30
0.0
 11
187.714
 21
6.90947
 31
0.0
  0
LINE
  8
0
 62
     0
 10
187.714
 20
6.90947
 30
0.0
 11
187.714
 21
7.89065
 31
0.0
  0
LINE
  8
0
 62
     0
 10
187.714
 20
7.89065
 30
0.0
 11
189.439
 21
7.89065
 31
0.0
  0
LINE
  8
0
 62
     0
 10
189.439
 20
7.89065
 30
0.0
 11
189.439
 21
14.1607
 31
0.0
  0
LINE
  8
0
 62
     0
 10
189.439
 20
14.1607
 30
0.0
 11
190.263
 21
14.1607
 31
0.0
  0
LINE
  8
0
 62
     0
 10
190.263
 20
14.1607
 30
0.0
 11
190.263
 21
16.9595
 31
0.0
  0
LINE
  8
0
 62
     0
 10
190.263
 20
16.9595
 30
0.0
 11
189.439
 21
16.9595
 31
0.0
  0
LINE
  8
0
 62
     0
 10
189.439
 20
16.9595
 30
0.0
 11
189.439
 21
20.1896
 31
0.0
  0
LINE
  8
0
 62
     0
 10
189.439
 20
20.1896
 30
0.0
 11
187.714
 21
20.1896
 31
0.0
  0
LINE
  8
0
 62
     0
 10
187.714
 20
20.1896
 30
0.0
 11
187.714
 21
21.1102
 31
0.0
  0
LINE
  8
0
 62
     0
 10
187.714
 20
21.1102
 30
0.0
 11
184.413
 21
21.1102
 31
0.0
  0
LINE
  8
0
 62
     0
 10
184.413
 20
21.1102
 30
0.0
 11
184.413
 21
20.1896
 31
0.0
  0
LINE
  8
0
 62
     0
 10
184.413
 20
20.1896
 30
0.0
 11
182.688
 21
20.1896
 31
0.0
  0
LINE
  8
0
 62
     0
 10
182.688
 20
20.1896
 30
0.0
 11
182.688
 21
16.9595
 31
0.0
  0
LINE
  8
0
 62
     0
 10
182.688
 20
16.9595
 30
0.0
 11
143.064
 21
16.9595
 31
0.0
  0
LINE
  8
0
 62
     0
 10
143.064
 20
16.9595
 30
0.0
 11
143.064
 21
21.66
 31
0.0
  0
LINE
  8
0
 62
     0
 10
143.064
 20
21.66
 30
0.0
 11
129.063
 21
21.66
 31
0.0
  0
LINE
  8
0
 62
     0
 10
10.0018
 20
21.66
 30
0.0
 11
24.0013
 21
21.66
 31
0.0
  0
LINE
  8
0
 62
     0
 10
24.0013
 20
21.66
 30
0.0
 11
24.0013
 21
7.6605
 31
0.0
  0
LINE
  8
0
 62
     0
 10
24.0013
 20
7.6605
 30
0.0
 11
10.0018
 21
7.6605
 31
0.0
  0
LINE
  8
0
 62
     0
 10
10.0018
 20
7.6605
 30
0.0
 11
10.0018
 21
21.66
 31
0.0
  0
LINE
  8
0
 62
     0
 10
33.8129
 20
21.66
 30
0.0
 11
47.8137
 21
21.66
 31
0.0
  0
LINE
  8
0
 62
     0
 10
47.8137
 20
21.66
 30
0.0
 11
47.8137
 21
7.6605
 31
0.0
  0
LINE
  8
0
 62
     0
 10
47.8137
 20
7.6605
 30
0.0
 11
33.8129
 21
7.6605
 31
0.0
  0
LINE
  8
0
 62
     0
 10
33.8129
 20
7.6605
 30
0.0
 11
33.8129
 21
21.66
 31
0.0
  0
LINE
  8
0
 62
     0
 10
57.627
 20
21.66
 30
0.0
 11
71.6262
 21
21.66
 31
0.0
  0
LINE
  8
0
 62
     0
 10
71.6262
 20
21.66
 30
0.0
 11
71.6262
 21
7.6605
 31
0.0
  0
LINE
  8
0
 62
     0
 10
71.6262
 20
7.6605
 30
0.0
 11
57.627
 21
7.6605
 31
0.0
  0
LINE
  8
0
 62
     0
 10
57.627
 20
7.6605
 30
0.0
 11
57.627
 21
21.66
 31
0.0
  0
LINE
  8
0
 62
     0
 10
200.502
 20
21.66
 30
0.0
 11
214.501
 21
21.66
 31
0.0
  0
LINE
  8
0
 62
     0
 10
214.501
 20
21.66
 30
0.0
 11
214.501
 21
7.6605
 31
0.0
  0
LINE
  8
0
 62
     0
 10
214.501
 20
7.6605
 30
0.0
 11
200.502
 21
7.6605
 31
0.0
  0
LINE
  8
0
 62
     0
 10
200.502
 20
7.6605
 30
0.0
 11
200.502
 21
21.66
 31
0.0
  0
LINE
  8
0
 62
     0
 10
224.313
 20
21.66
 30
0.0
 11
238.314
 21
21.66
 31
0.0
  0
LINE
  8
0
 62
     0
 10
238.314
 20
21.66
 30
0.0
 11
238.314
 21
7.6605
 31
0.0
  0
LINE
  8
0
 62
     0
 10
238.314
 20
7.6605
 30
0.0
 11
224.313
 21
7.6605
 31
0.0
  0
LINE
  8
0
 62
     0
 10
224.313
 20
7.6605
 30
0.0
 11
224.313
 21
21.66
 31
0.0
  0
LINE
  8
0
 62
     0
 10
248.127
 20
21.66
 30
0.0
 11
262.126
 21
21.66
 31
0.0
  0
LINE
  8
0
 62
     0
 10
262.126
 20
21.66
 30
0.0
 11
262.126
 21
7.6605
 31
0.0
  0
LINE
  8
0
 62
     0
 10
262.126
 20
7.6605
 30
0.0
 11
248.127
 21
7.6605
 31
0.0
  0
LINE
  8
0
 62
     0
 10
248.127
 20
7.6605
 30
0.0
 11
248.127
 21
21.66
 31
0.0
  0
LINE
  8
0
 62
     0
 10
271.938
 20
21.66
 30
0.0
 11
285.939
 21
21.66
 31
0.0
  0
LINE
  8
0
 62
     0
 10
285.939
 20
21.66
 30
0.0
 11
285.939
 21
7.6605
 31
0.0
  0
LINE
  8
0
 62
     0
 10
285.939
 20
7.6605
 30
0.0
 11
271.938
 21
7.6605
 31
0.0
  0
LINE
  8
0
 62
     0
 10
271.938
 20
7.6605
 30
0.0
 11
271.938
 21
21.66
 31
0.0
  0
LINE
  8
0
 62
     0
 10
298.133
 20
21.66
 30
0.0
 11
312.132
 21
21.66
 31
0.0
  0
LINE
  8
0
 62
     0
 10
312.132
 20
21.66
 30
0.0
 11
312.132
 21
7.6605
 31
0.0
  0
LINE
  8
0
 62
     0
 10
312.132
 20
7.6605
 30
0.0
 11
298.133
 21
7.6605
 31
0.0
  0
LINE
  8
0
 62
     0
 10
298.133
 20
7.6605
 30
0.0
 11
298.133
 21
21.66
 31
0.0
  0
LINE
  8
0
 62
     0
 10
317.183
 20
21.66
 30
0.0
 11
331.182
 21
21.66
 31
0.0
  0
LINE
  8
0
 62
     0
 10
331.182
 20
21.66
 30
0.0
 11
331.182
 21
7.6605
 31
0.0
  0
LINE
  8
0
 62
     0
 10
331.182
 20
7.6605
 30
0.0
 11
317.183
 21
7.6605
 31
0.0
  0
LINE
  8
0
 62
     0
 10
317.183
 20
7.6605
 30
0.0
 11
317.183
 21
21.66
 31
0.0
  0
LINE
  8
0
 62
     0
 10
336.233
 20
21.66
 30
0.0
 11
350.232
 21
21.66
 31
0.0
  0
LINE
  8
0
 62
     0
 10
350.232
 20
21.66
 30
0.0
 11
350.232
 21
7.6605
 31
0.0
  0
LINE
  8
0
 62
     0
 10
350.232
 20
7.6605
 30
0.0
 11
336.233
 21
7.6605
 31
0.0
  0
LINE
  8
0
 62
     0
 10
336.233
 20
7.6605
 30
0.0
 11
336.233
 21
21.66
 31
0.0
  0
LINE
  8
0
 62
     0
 10
19.5268
 20
40.7099
 30
0.0
 11
19.5268
 21
36.0094
 31
0.0
  0
LINE
  8
0
 62
     0
 10
19.5268
 20
36.0094
 30
0.0
 11
18.0013
 21
36.0094
 31
0.0
  0
LINE
  8
0
 62
     0
 10
18.0013
 20
36.0094
 30
0.0
 11
18.0013
 21
39.2395
 31
0.0
  0
LINE
  8
0
 62
     0
 10
18.0013
 20
39.2395
 30
0.0
 11
16.276
 21
39.2395
 31
0.0
  0
LINE
  8
0
 62
     0
 10
16.276
 20
39.2395
 30
0.0
 11
16.276
 21
40.1602
 31
0.0
  0
LINE
  8
0
 62
     0
 10
16.276
 20
40.1602
 30
0.0
 11
12.977
 21
40.1602
 31
0.0
  0
LINE
  8
0
 62
     0
 10
12.977
 20
40.1602
 30
0.0
 11
12.977
 21
39.2395
 31
0.0
  0
LINE
  8
0
 62
     0
 10
12.977
 20
39.2395
 30
0.0
 11
11.2503
 21
39.2395
 31
0.0
  0
LINE
  8
0
 62
     0
 10
11.2503
 20
39.2395
 30
0.0
 11
11.2503
 21
36.0094
 31
0.0
  0
LINE
  8
0
 62
     0
 10
11.2503
 20
36.0094
 30
0.0
 11
10.4262
 21
36.0094
 31
0.0
  0
LINE
  8
0
 62
     0
 10
10.4262
 20
36.0094
 30
0.0
 11
10.4262
 21
33.2107
 31
0.0
  0
LINE
  8
0
 62
     0
 10
10.4262
 20
33.2107
 30
0.0
 11
11.2503
 21
33.2107
 31
0.0
  0
LINE
  8
0
 62
     0
 10
11.2503
 20
33.2107
 30
0.0
 11
11.2503
 21
26.9407
 31
0.0
  0
LINE
  8
0
 62
     0
 10
11.2503
 20
26.9407
 30
0.0
 11
12.977
 21
26.9407
 31
0.0
  0
LINE
  8
0
 62
     0
 10
12.977
 20
26.9407
 30
0.0
 11
12.977
 21
25.9595
 31
0.0
  0
LINE
  8
0
 62
     0
 10
12.977
 20
25.9595
 30
0.0
 11
16.276
 21
25.9595
 31
0.0
  0
LINE
  8
0
 62
     0
 10
16.276
 20
25.9595
 30
0.0
 11
16.276
 21
26.9407
 31
0.0
  0
LINE
  8
0
 62
     0
 10
16.276
 20
26.9407
 30
0.0
 11
18.0013
 21
26.9407
 31
0.0
  0
LINE
  8
0
 62
     0
 10
18.0013
 20
26.9407
 30
0.0
 11
18.0013
 21
31.4096
 31
0.0
  0
LINE
  8
0
 62
     0
 10
18.0013
 20
31.4096
 30
0.0
 11
19.5268
 21
31.4096
 31
0.0
  0
LINE
  8
0
 62
     0
 10
19.5268
 20
31.4096
 30
0.0
 11
19.5268
 21
26.7105
 31
0.0
  0
LINE
  8
0
 62
     0
 10
19.5268
 20
26.7105
 30
0.0
 11
33.5263
 21
26.7105
 31
0.0
  0
LINE
  8
0
 62
     0
 10
33.5263
 20
26.7105
 30
0.0
 11
33.5263
 21
31.4096
 31
0.0
  0
LINE
  8
0
 62
     0
 10
33.5263
 20
31.4096
 30
0.0
 11
35.0518
 21
31.4096
 31
0.0
  0
LINE
  8
0
 62
     0
 10
35.0518
 20
31.4096
 30
0.0
 11
35.0518
 21
26.9407
 31
0.0
  0
LINE
  8
0
 62
     0
 10
35.0518
 20
26.9407
 30
0.0
 11
36.7771
 21
26.9407
 31
0.0
  0
LINE
  8
0
 62
     0
 10
36.7771
 20
26.9407
 30
0.0
 11
36.7771
 21
25.9595
 31
0.0
  0
LINE
  8
0
 62
     0
 10
36.7771
 20
25.9595
 30
0.0
 11
40.0763
 21
25.9595
 31
0.0
  0
LINE
  8
0
 62
     0
 10
40.0763
 20
25.9595
 30
0.0
 11
40.0763
 21
26.9407
 31
0.0
  0
LINE
  8
0
 62
     0
 10
40.0763
 20
26.9407
 30
0.0
 11
41.8013
 21
26.9407
 31
0.0
  0
LINE
  8
0
 62
     0
 10
41.8013
 20
26.9407
 30
0.0
 11
41.8013
 21
33.2107
 31
0.0
  0
LINE
  8
0
 62
     0
 10
41.8013
 20
33.2107
 30
0.0
 11
42.6268
 21
33.2107
 31
0.0
  0
LINE
  8
0
 62
     0
 10
42.6268
 20
33.2107
 30
0.0
 11
42.6268
 21
36.0094
 31
0.0
  0
LINE
  8
0
 62
     0
 10
42.6268
 20
36.0094
 30
0.0
 11
41.8013
 21
36.0094
 31
0.0
  0
LINE
  8
0
 62
     0
 10
41.8013
 20
36.0094
 30
0.0
 11
41.8013
 21
39.2395
 31
0.0
  0
LINE
  8
0
 62
     0
 10
41.8013
 20
39.2395
 30
0.0
 11
40.0763
 21
39.2395
 31
0.0
  0
LINE
  8
0
 62
     0
 10
40.0763
 20
39.2395
 30
0.0
 11
40.0763
 21
40.1602
 31
0.0
  0
LINE
  8
0
 62
     0
 10
40.0763
 20
40.1602
 30
0.0
 11
36.7771
 21
40.1602
 31
0.0
  0
LINE
  8
0
 62
     0
 10
36.7771
 20
40.1602
 30
0.0
 11
36.7771
 21
39.2395
 31
0.0
  0
LINE
  8
0
 62
     0
 10
36.7771
 20
39.2395
 30
0.0
 11
35.0518
 21
39.2395
 31
0.0
  0
LINE
  8
0
 62
     0
 10
35.0518
 20
39.2395
 30
0.0
 11
35.0518
 21
36.0094
 31
0.0
  0
LINE
  8
0
 62
     0
 10
35.0518
 20
36.0094
 30
0.0
 11
33.5263
 21
36.0094
 31
0.0
  0
LINE
  8
0
 62
     0
 10
33.5263
 20
36.0094
 30
0.0
 11
33.5263
 21
40.7099
 31
0.0
  0
LINE
  8
0
 62
     0
 10
33.5263
 20
40.7099
 30
0.0
 11
19.5268
 21
40.7099
 31
0.0
  0
LINE
  8
0
 62
     0
 10
257.652
 20
40.7099
 30
0.0
 11
257.652
 21
36.0094
 31
0.0
  0
LINE
  8
0
 62
     0
 10
257.652
 20
36.0094
 30
0.0
 11
256.126
 21
36.0094
 31
0.0
  0
LINE
  8
0
 62
     0
 10
256.126
 20
36.0094
 30
0.0
 11
256.126
 21
39.2395
 31
0.0
  0
LINE
  8
0
 62
     0
 10
256.126
 20
39.2395
 30
0.0
 11
254.401
 21
39.2395
 31
0.0
  0
LINE
  8
0
 62
     0
 10
254.401
 20
39.2395
 30
0.0
 11
254.401
 21
40.1602
 31
0.0
  0
LINE
  8
0
 62
     0
 10
254.401
 20
40.1602
 30
0.0
 11
251.101
 21
40.1602
 31
0.0
  0
LINE
  8
0
 62
     0
 10
251.101
 20
40.1602
 30
0.0
 11
251.101
 21
39.2395
 31
0.0
  0
LINE
  8
0
 62
     0
 10
251.101
 20
39.2395
 30
0.0
 11
249.377
 21
39.2395
 31
0.0
  0
LINE
  8
0
 62
     0
 10
249.377
 20
39.2395
 30
0.0
 11
249.377
 21
36.0094
 31
0.0
  0
LINE
  8
0
 62
     0
 10
249.377
 20
36.0094
 30
0.0
 11
248.551
 21
36.0094
 31
0.0
  0
LINE
  8
0
 62
     0
 10
248.551
 20
36.0094
 30
0.0
 11
248.551
 21
33.2107
 31
0.0
  0
LINE
  8
0
 62
     0
 10
248.551
 20
33.2107
 30
0.0
 11
249.377
 21
33.2107
 31
0.0
  0
LINE
  8
0
 62
     0
 10
249.377
 20
33.2107
 30
0.0
 11
249.377
 21
26.9407
 31
0.0
  0
LINE
  8
0
 62
     0
 10
249.377
 20
26.9407
 30
0.0
 11
251.101
 21
26.9407
 31
0.0
  0
LINE
  8
0
 62
     0
 10
251.101
 20
26.9407
 30
0.0
 11
251.101
 21
25.9595
 31
0.0
  0
LINE
  8
0
 62
     0
 10
251.101
 20
25.9595
 30
0.0
 11
254.401
 21
25.9595
 31
0.0
  0
LINE
  8
0
 62
     0
 10
254.401
 20
25.9595
 30
0.0
 11
254.401
 21
26.9407
 31
0.0
  0
LINE
  8
0
 62
     0
 10
254.401
 20
26.9407
 30
0.0
 11
256.126
 21
26.9407
 31
0.0
  0
LINE
  8
0
 62
     0
 10
256.126
 20
26.9407
 30
0.0
 11
256.126
 21
31.4096
 31
0.0
  0
LINE
  8
0
 62
     0
 10
256.126
 20
31.4096
 30
0.0
 11
257.652
 21
31.4096
 31
0.0
  0
LINE
  8
0
 62
     0
 10
257.652
 20
31.4096
 30
0.0
 11
257.652
 21
26.7105
 31
0.0
  0
LINE
  8
0
 62
     0
 10
257.652
 20
26.7105
 30
0.0
 11
271.651
 21
26.7105
 31
0.0
  0
LINE
  8
0
 62
     0
 10
271.651
 20
26.7105
 30
0.0
 11
271.651
 21
31.4096
 31
0.0
  0
LINE
  8
0
 62
     0
 10
271.651
 20
31.4096
 30
0.0
 11
273.177
 21
31.4096
 31
0.0
  0
LINE
  8
0
 62
     0
 10
273.177
 20
31.4096
 30
0.0
 11
273.177
 21
26.9407
 31
0.0
  0
LINE
  8
0
 62
     0
 10
273.177
 20
26.9407
 30
0.0
 11
274.902
 21
26.9407
 31
0.0
  0
LINE
  8
0
 62
     0
 10
274.902
 20
26.9407
 30
0.0
 11
274.902
 21
25.9595
 31
0.0
  0
LINE
  8
0
 62
     0
 10
274.902
 20
25.9595
 30
0.0
 11
278.201
 21
25.9595
 31
0.0
  0
LINE
  8
0
 62
     0
 10
278.201
 20
25.9595
 30
0.0
 11
278.201
 21
26.9407
 31
0.0
  0
LINE
  8
0
 62
     0
 10
278.201
 20
26.9407
 30
0.0
 11
279.926
 21
26.9407
 31
0.0
  0
LINE
  8
0
 62
     0
 10
279.926
 20
26.9407
 30
0.0
 11
279.926
 21
33.2107
 31
0.0
  0
LINE
  8
0
 62
     0
 10
279.926
 20
33.2107
 30
0.0
 11
280.752
 21
33.2107
 31
0.0
  0
LINE
  8
0
 62
     0
 10
280.752
 20
33.2107
 30
0.0
 11
280.752
 21
36.0094
 31
0.0
  0
LINE
  8
0
 62
     0
 10
280.752
 20
36.0094
 30
0.0
 11
279.926
 21
36.0094
 31
0.0
  0
LINE
  8
0
 62
     0
 10
279.926
 20
36.0094
 30
0.0
 11
279.926
 21
39.2395
 31
0.0
  0
LINE
  8
0
 62
     0
 10
279.926
 20
39.2395
 30
0.0
 11
278.201
 21
39.2395
 31
0.0
  0
LINE
  8
0
 62
     0
 10
278.201
 20
39.2395
 30
0.0
 11
278.201
 21
40.1602
 31
0.0
  0
LINE
  8
0
 62
     0
 10
278.201
 20
40.1602
 30
0.0
 11
274.902
 21
40.1602
 31
0.0
  0
LINE
  8
0
 62
     0
 10
274.902
 20
40.1602
 30
0.0
 11
274.902
 21
39.2395
 31
0.0
  0
LINE
  8
0
 62
     0
 10
274.902
 20
39.2395
 30
0.0
 11
273.177
 21
39.2395
 31
0.0
  0
LINE
  8
0
 62
     0
 10
273.177
 20
39.2395
 30
0.0
 11
273.177
 21
36.0094
 31
0.0
  0
LINE
  8
0
 62
     0
 10
273.177
 20
36.0094
 30
0.0
 11
271.651
 21
36.0094
 31
0.0
  0
LINE
  8
0
 62
     0
 10
271.651
 20
36.0094
 30
0.0
 11
271.651
 21
40.7099
 31
0.0
  0
LINE
  8
0
 62
     0
 10
271.651
 20
40.7099
 30
0.0
 11
257.652
 21
40.7099
 31
0.0
  0
LINE
  8
0
 62
     0
 10
50.4832
 20
40.7099
 30
0.0
 11
64.4825
 21
40.7099
 31
0.0
  0
LINE
  8
0
 62
     0
 10
64.4825
 20
40.7099
 30
0.0
 11
64.4825
 21
26.7105
 31
0.0
  0
LINE
  8
0
 62
     0
 10
64.4825
 20
26.7105
 30
0.0
 11
50.4832
 21
26.7105
 31
0.0
  0
LINE
  8
0
 62
     0
 10
50.4832
 20
26.7105
 30
0.0
 11
50.4832
 21
40.7099
 31
0.0
  0
LINE
  8
0
 62
     0
 10
69.5332
 20
40.7099
 30
0.0
 11
83.5325
 21
40.7099
 31
0.0
  0
LINE
  8
0
 62
     0
 10
83.5325
 20
40.7099
 30
0.0
 11
83.5325
 21
26.7105
 31
0.0
  0
LINE
  8
0
 62
     0
 10
83.5325
 20
26.7105
 30
0.0
 11
69.5332
 21
26.7105
 31
0.0
  0
LINE
  8
0
 62
     0
 10
69.5332
 20
26.7105
 30
0.0
 11
69.5332
 21
40.7099
 31
0.0
  0
LINE
  8
0
 62
     0
 10
88.5832
 20
40.7099
 30
0.0
 11
102.582
 21
40.7099
 31
0.0
  0
LINE
  8
0
 62
     0
 10
102.582
 20
40.7099
 30
0.0
 11
102.582
 21
26.7105
 31
0.0
  0
LINE
  8
0
 62
     0
 10
102.582
 20
26.7105
 30
0.0
 11
88.5832
 21
26.7105
 31
0.0
  0
LINE
  8
0
 62
     0
 10
88.5832
 20
26.7105
 30
0.0
 11
88.5832
 21
40.7099
 31
0.0
  0
LINE
  8
0
 62
     0
 10
107.633
 20
40.7099
 30
0.0
 11
121.632
 21
40.7099
 31
0.0
  0
LINE
  8
0
 62
     0
 10
121.632
 20
40.7099
 30
0.0
 11
121.632
 21
26.7105
 31
0.0
  0
LINE
  8
0
 62
     0
 10
121.632
 20
26.7105
 30
0.0
 11
107.633
 21
26.7105
 31
0.0
  0
LINE
  8
0
 62
     0
 10
107.633
 20
26.7105
 30
0.0
 11
107.633
 21
40.7099
 31
0.0
  0
LINE
  8
0
 62
     0
 10
126.683
 20
40.7099
 30
0.0
 11
140.682
 21
40.7099
 31
0.0
  0
LINE
  8
0
 62
     0
 10
140.682
 20
40.7099
 30
0.0
 11
140.682
 21
26.7105
 31
0.0
  0
LINE
  8
0
 62
     0
 10
140.682
 20
26.7105
 30
0.0
 11
126.683
 21
26.7105
 31
0.0
  0
LINE
  8
0
 62
     0
 10
126.683
 20
26.7105
 30
0.0
 11
126.683
 21
40.7099
 31
0.0
  0
LINE
  8
0
 62
     0
 10
145.733
 20
40.7099
 30
0.0
 11
159.732
 21
40.7099
 31
0.0
  0
LINE
  8
0
 62
     0
 10
159.732
 20
40.7099
 30
0.0
 11
159.732
 21
26.7105
 31
0.0
  0
LINE
  8
0
 62
     0
 10
159.732
 20
26.7105
 30
0.0
 11
145.733
 21
26.7105
 31
0.0
  0
LINE
  8
0
 62
     0
 10
145.733
 20
26.7105
 30
0.0
 11
145.733
 21
40.7099
 31
0.0
  0
LINE
  8
0
 62
     0
 10
164.783
 20
40.7099
 30
0.0
 11
178.782
 21
40.7099
 31
0.0
  0
LINE
  8
0
 62
     0
 10
178.782
 20
40.7099
 30
0.0
 11
178.782
 21
26.7105
 31
0.0
  0
LINE
  8
0
 62
     0
 10
178.782
 20
26.7105
 30
0.0
 11
164.783
 21
26.7105
 31
0.0
  0
LINE
  8
0
 62
     0
 10
164.783
 20
26.7105
 30
0.0
 11
164.783
 21
40.7099
 31
0.0
  0
LINE
  8
0
 62
     0
 10
183.833
 20
40.7099
 30
0.0
 11
197.832
 21
40.7099
 31
0.0
  0
LINE
  8
0
 62
     0
 10
197.832
 20
40.7099
 30
0.0
 11
197.832
 21
26.7105
 31
0.0
  0
LINE
  8
0
 62
     0
 10
197.832
 20
26.7105
 30
0.0
 11
183.833
 21
26.7105
 31
0.0
  0
LINE
  8
0
 62
     0
 10
183.833
 20
26.7105
 30
0.0
 11
183.833
 21
40.7099
 31
0.0
  0
LINE
  8
0
 62
     0
 10
202.883
 20
40.7099
 30
0.0
 11
216.882
 21
40.7099
 31
0.0
  0
LINE
  8
0
 62
     0
 10
216.882
 20
40.7099
 30
0.0
 11
216.882
 21
26.7105
 31
0.0
  0
LINE
  8
0
 62
     0
 10
216.882
 20
26.7105
 30
0.0
 11
202.883
 21
26.7105
 31
0.0
  0
LINE
  8
0
 62
     0
 10
202.883
 20
26.7105
 30
0.0
 11
202.883
 21
40.7099
 31
0.0
  0
LINE
  8
0
 62
     0
 10
221.933
 20
40.7099
 30
0.0
 11
235.932
 21
40.7099
 31
0.0
  0
LINE
  8
0
 62
     0
 10
235.932
 20
40.7099
 30
0.0
 11
235.932
 21
26.7105
 31
0.0
  0
LINE
  8
0
 62
     0
 10
235.932
 20
26.7105
 30
0.0
 11
221.933
 21
26.7105
 31
0.0
  0
LINE
  8
0
 62
     0
 10
221.933
 20
26.7105
 30
0.0
 11
221.933
 21
40.7099
 31
0.0
  0
LINE
  8
0
 62
     0
 10
317.183
 20
40.7099
 30
0.0
 11
331.182
 21
40.7099
 31
0.0
  0
LINE
  8
0
 62
     0
 10
331.182
 20
40.7099
 30
0.0
 11
331.182
 21
26.7105
 31
0.0
  0
LINE
  8
0
 62
     0
 10
331.182
 20
26.7105
 30
0.0
 11
317.183
 21
26.7105
 31
0.0
  0
LINE
  8
0
 62
     0
 10
317.183
 20
26.7105
 30
0.0
 11
317.183
 21
40.7099
 31
0.0
  0
LINE
  8
0
 62
     0
 10
262.413
 20
59.7598
 30
0.0
 11
262.413
 21
55.0594
 31
0.0
  0
LINE
  8
0
 62
     0
 10
262.413
 20
55.0594
 30
0.0
 11
260.889
 21
55.0594
 31
0.0
  0
LINE
  8
0
 62
     0
 10
260.889
 20
55.0594
 30
0.0
 11
260.889
 21
58.2895
 31
0.0
  0
LINE
  8
0
 62
     0
 10
260.889
 20
58.2895
 30
0.0
 11
259.164
 21
58.2895
 31
0.0
  0
LINE
  8
0
 62
     0
 10
259.164
 20
58.2895
 30
0.0
 11
259.164
 21
59.2102
 31
0.0
  0
LINE
  8
0
 62
     0
 10
259.164
 20
59.2102
 30
0.0
 11
255.863
 21
59.2102
 31
0.0
  0
LINE
  8
0
 62
     0
 10
255.863
 20
59.2102
 30
0.0
 11
255.863
 21
58.2895
 31
0.0
  0
LINE
  8
0
 62
     0
 10
255.863
 20
58.2895
 30
0.0
 11
254.138
 21
58.2895
 31
0.0
  0
LINE
  8
0
 62
     0
 10
254.138
 20
58.2895
 30
0.0
 11
254.138
 21
55.0594
 31
0.0
  0
LINE
  8
0
 62
     0
 10
254.138
 20
55.0594
 30
0.0
 11
253.314
 21
55.0594
 31
0.0
  0
LINE
  8
0
 62
     0
 10
253.314
 20
55.0594
 30
0.0
 11
253.314
 21
52.2609
 31
0.0
  0
LINE
  8
0
 62
     0
 10
253.314
 20
52.2609
 30
0.0
 11
254.138
 21
52.2609
 31
0.0
  0
LINE
  8
0
 62
     0
 10
254.138
 20
52.2609
 30
0.0
 11
254.138
 21
45.9906
 31
0.0
  0
LINE
  8
0
 62
     0
 10
254.138
 20
45.9906
 30
0.0
 11
255.863
 21
45.9906
 31
0.0
  0
LINE
  8
0
 62
     0
 10
255.863
 20
45.9906
 30
0.0
 11
255.863
 21
45.0095
 31
0.0
  0
LINE
  8
0
 62
     0
 10
255.863
 20
45.0095
 30
0.0
 11
259.164
 21
45.0095
 31
0.0
  0
LINE
  8
0
 62
     0
 10
259.164
 20
45.0095
 30
0.0
 11
259.164
 21
45.9906
 31
0.0
  0
LINE
  8
0
 62
     0
 10
259.164
 20
45.9906
 30
0.0
 11
260.889
 21
45.9906
 31
0.0
  0
LINE
  8
0
 62
     0
 10
260.889
 20
45.9906
 30
0.0
 11
260.889
 21
50.4596
 31
0.0
  0
LINE
  8
0
 62
     0
 10
260.889
 20
50.4596
 30
0.0
 11
262.413
 21
50.4596
 31
0.0
  0
LINE
  8
0
 62
     0
 10
262.413
 20
50.4596
 30
0.0
 11
262.413
 21
45.7606
 31
0.0
  0
LINE
  8
0
 62
     0
 10
262.413
 20
45.7606
 30
0.0
 11
276.414
 21
45.7606
 31
0.0
  0
LINE
  8
0
 62
     0
 10
276.414
 20
45.7606
 30
0.0
 11
276.414
 21
50.4596
 31
0.0
  0
LINE
  8
0
 62
     0
 10
276.414
 20
50.4596
 30
0.0
 11
277.938
 21
50.4596
 31
0.0
  0
LINE
  8
0
 62
     0
 10
277.938
 20
50.4596
 30
0.0
 11
277.938
 21
45.9906
 31
0.0
  0
LINE
  8
0
 62
     0
 10
277.938
 20
45.9906
 30
0.0
 11
279.663
 21
45.9906
 31
0.0
  0
LINE
  8
0
 62
     0
 10
279.663
 20
45.9906
 30
0.0
 11
279.663
 21
45.0095
 31
0.0
  0
LINE
  8
0
 62
     0
 10
279.663
 20
45.0095
 30
0.0
 11
282.964
 21
45.0095
 31
0.0
  0
LINE
  8
0
 62
     0
 10
282.964
 20
45.0095
 30
0.0
 11
282.964
 21
45.9906
 31
0.0
  0
LINE
  8
0
 62
     0
 10
282.964
 20
45.9906
 30
0.0
 11
284.689
 21
45.9906
 31
0.0
  0
LINE
  8
0
 62
     0
 10
284.689
 20
45.9906
 30
0.0
 11
284.689
 21
52.2609
 31
0.0
  0
LINE
  8
0
 62
     0
 10
284.689
 20
52.2609
 30
0.0
 11
285.513
 21
52.2609
 31
0.0
  0
LINE
  8
0
 62
     0
 10
285.513
 20
52.2609
 30
0.0
 11
285.513
 21
55.0594
 31
0.0
  0
LINE
  8
0
 62
     0
 10
285.513
 20
55.0594
 30
0.0
 11
284.689
 21
55.0594
 31
0.0
  0
LINE
  8
0
 62
     0
 10
284.689
 20
55.0594
 30
0.0
 11
284.689
 21
58.2895
 31
0.0
  0
LINE
  8
0
 62
     0
 10
284.689
 20
58.2895
 30
0.0
 11
282.964
 21
58.2895
 31
0.0
  0
LINE
  8
0
 62
     0
 10
282.964
 20
58.2895
 30
0.0
 11
282.964
 21
59.2102
 31
0.0
  0
LINE
  8
0
 62
     0
 10
282.964
 20
59.2102
 30
0.0
 11
279.663
 21
59.2102
 31
0.0
  0
LINE
  8
0
 62
     0
 10
279.663
 20
59.2102
 30
0.0
 11
279.663
 21
58.2895
 31
0.0
  0
LINE
  8
0
 62
     0
 10
279.663
 20
58.2895
 30
0.0
 11
277.938
 21
58.2895
 31
0.0
  0
LINE
  8
0
 62
     0
 10
277.938
 20
58.2895
 30
0.0
 11
277.938
 21
55.0594
 31
0.0
  0
LINE
  8
0
 62
     0
 10
277.938
 20
55.0594
 30
0.0
 11
276.414
 21
55.0594
 31
0.0
  0
LINE
  8
0
 62
     0
 10
276.414
 20
55.0594
 30
0.0
 11
276.414
 21
59.7598
 31
0.0
  0
LINE
  8
0
 62
     0
 10
276.414
 20
59.7598
 30
0.0
 11
262.413
 21
59.7598
 31
0.0
  0
LINE
  8
0
 62
     0
 10
14.7629
 20
59.7598
 30
0.0
 11
28.7638
 21
59.7598
 31
0.0
  0
LINE
  8
0
 62
     0
 10
28.7638
 20
59.7598
 30
0.0
 11
28.7638
 21
45.7606
 31
0.0
  0
LINE
  8
0
 62
     0
 10
28.7638
 20
45.7606
 30
0.0
 11
14.7629
 21
45.7606
 31
0.0
  0
LINE
  8
0
 62
     0
 10
14.7629
 20
45.7606
 30
0.0
 11
14.7629
 21
59.7598
 31
0.0
  0
LINE
  8
0
 62
     0
 10
40.9582
 20
59.7598
 30
0.0
 11
54.9575
 21
59.7598
 31
0.0
  0
LINE
  8
0
 62
     0
 10
54.9575
 20
59.7598
 30
0.0
 11
54.9575
 21
45.7606
 31
0.0
  0
LINE
  8
0
 62
     0
 10
54.9575
 20
45.7606
 30
0.0
 11
40.9582
 21
45.7606
 31
0.0
  0
LINE
  8
0
 62
     0
 10
40.9582
 20
45.7606
 30
0.0
 11
40.9582
 21
59.7598
 31
0.0
  0
LINE
  8
0
 62
     0
 10
60.0082
 20
59.7598
 30
0.0
 11
74.0075
 21
59.7598
 31
0.0
  0
LINE
  8
0
 62
     0
 10
74.0075
 20
59.7598
 30
0.0
 11
74.0075
 21
45.7606
 31
0.0
  0
LINE
  8
0
 62
     0
 10
74.0075
 20
45.7606
 30
0.0
 11
60.0082
 21
45.7606
 31
0.0
  0
LINE
  8
0
 62
     0
 10
60.0082
 20
45.7606
 30
0.0
 11
60.0082
 21
59.7598
 31
0.0
  0
LINE
  8
0
 62
     0
 10
79.0582
 20
59.7598
 30
0.0
 11
93.0575
 21
59.7598
 31
0.0
  0
LINE
  8
0
 62
     0
 10
93.0575
 20
59.7598
 30
0.0
 11
93.0575
 21
45.7606
 31
0.0
  0
LINE
  8
0
 62
     0
 10
93.0575
 20
45.7606
 30
0.0
 11
79.0582
 21
45.7606
 31
0.0
  0
LINE
  8
0
 62
     0
 10
79.0582
 20
45.7606
 30
0.0
 11
79.0582
 21
59.7598
 31
0.0
  0
LINE
  8
0
 62
     0
 10
98.1082
 20
59.7598
 30
0.0
 11
112.107
 21
59.7598
 31
0.0
  0
LINE
  8
0
 62
     0
 10
112.107
 20
59.7598
 30
0.0
 11
112.107
 21
45.7606
 31
0.0
  0
LINE
  8
0
 62
     0
 10
112.107
 20
45.7606
 30
0.0
 11
98.1082
 21
45.7606
 31
0.0
  0
LINE
  8
0
 62
     0
 10
98.1082
 20
45.7606
 30
0.0
 11
98.1082
 21
59.7598
 31
0.0
  0
LINE
  8
0
 62
     0
 10
117.158
 20
59.7598
 30
0.0
 11
131.157
 21
59.7598
 31
0.0
  0
LINE
  8
0
 62
     0
 10
131.157
 20
59.7598
 30
0.0
 11
131.157
 21
45.7606
 31
0.0
  0
LINE
  8
0
 62
     0
 10
131.157
 20
45.7606
 30
0.0
 11
117.158
 21
45.7606
 31
0.0
  0
LINE
  8
0
 62
     0
 10
117.158
 20
45.7606
 30
0.0
 11
117.158
 21
59.7598
 31
0.0
  0
LINE
  8
0
 62
     0
 10
136.208
 20
59.7598
 30
0.0
 11
150.207
 21
59.7598
 31
0.0
  0
LINE
  8
0
 62
     0
 10
150.207
 20
59.7598
 30
0.0
 11
150.207
 21
45.7606
 31
0.0
  0
LINE
  8
0
 62
     0
 10
150.207
 20
45.7606
 30
0.0
 11
136.208
 21
45.7606
 31
0.0
  0
LINE
  8
0
 62
     0
 10
136.208
 20
45.7606
 30
0.0
 11
136.208
 21
59.7598
 31
0.0
  0
LINE
  8
0
 62
     0
 10
155.258
 20
59.7598
 30
0.0
 11
169.257
 21
59.7598
 31
0.0
  0
LINE
  8
0
 62
     0
 10
169.257
 20
59.7598
 30
0.0
 11
169.257
 21
45.7606
 31
0.0
  0
LINE
  8
0
 62
     0
 10
169.257
 20
45.7606
 30
0.0
 11
155.258
 21
45.7606
 31
0.0
  0
LINE
  8
0
 62
     0
 10
155.258
 20
45.7606
 30
0.0
 11
155.258
 21
59.7598
 31
0.0
  0
LINE
  8
0
 62
     0
 10
174.308
 20
59.7598
 30
0.0
 11
188.307
 21
59.7598
 31
0.0
  0
LINE
  8
0
 62
     0
 10
188.307
 20
59.7598
 30
0.0
 11
188.307
 21
45.7606
 31
0.0
  0
LINE
  8
0
 62
     0
 10
188.307
 20
45.7606
 30
0.0
 11
174.308
 21
45.7606
 31
0.0
  0
LINE
  8
0
 62
     0
 10
174.308
 20
45.7606
 30
0.0
 11
174.308
 21
59.7598
 31
0.0
  0
LINE
  8
0
 62
     0
 10
193.358
 20
59.7598
 30
0.0
 11
207.357
 21
59.7598
 31
0.0
  0
LINE
  8
0
 62
     0
 10
207.357
 20
59.7598
 30
0.0
 11
207.357
 21
45.7606
 31
0.0
  0
LINE
  8
0
 62
     0
 10
207.357
 20
45.7606
 30
0.0
 11
193.358
 21
45.7606
 31
0.0
  0
LINE
  8
0
 62
     0
 10
193.358
 20
45.7606
 30
0.0
 11
193.358
 21
59.7598
 31
0.0
  0
LINE
  8
0
 62
     0
 10
212.408
 20
59.7598
 30
0.0
 11
226.407
 21
59.7598
 31
0.0
  0
LINE
  8
0
 62
     0
 10
226.407
 20
59.7598
 30
0.0
 11
226.407
 21
45.7606
 31
0.0
  0
LINE
  8
0
 62
     0
 10
226.407
 20
45.7606
 30
0.0
 11
212.408
 21
45.7606
 31
0.0
  0
LINE
  8
0
 62
     0
 10
212.408
 20
45.7606
 30
0.0
 11
212.408
 21
59.7598
 31
0.0
  0
LINE
  8
0
 62
     0
 10
231.458
 20
59.7598
 30
0.0
 11
245.457
 21
59.7598
 31
0.0
  0
LINE
  8
0
 62
     0
 10
245.457
 20
59.7598
 30
0.0
 11
245.457
 21
45.7606
 31
0.0
  0
LINE
  8
0
 62
     0
 10
245.457
 20
45.7606
 30
0.0
 11
231.458
 21
45.7606
 31
0.0
  0
LINE
  8
0
 62
     0
 10
231.458
 20
45.7606
 30
0.0
 11
231.458
 21
59.7598
 31
0.0
  0
LINE
  8
0
 62
     0
 10
12.3831
 20
78.8098
 30
0.0
 11
26.3826
 21
78.8098
 31
0.0
  0
LINE
  8
0
 62
     0
 10
26.3826
 20
78.8098
 30
0.0
 11
26.3826
 21
64.8106
 31
0.0
  0
LINE
  8
0
 62
     0
 10
26.3826
 20
64.8106
 30
0.0
 11
12.3831
 21
64.8106
 31
0.0
  0
LINE
  8
0
 62
     0
 10
12.3831
 20
64.8106
 30
0.0
 11
12.3831
 21
78.8098
 31
0.0
  0
LINE
  8
0
 62
     0
 10
36.1957
 20
78.8098
 30
0.0
 11
50.195
 21
78.8098
 31
0.0
  0
LINE
  8
0
 62
     0
 10
50.195
 20
78.8098
 30
0.0
 11
50.195
 21
64.8106
 31
0.0
  0
LINE
  8
0
 62
     0
 10
50.195
 20
64.8106
 30
0.0
 11
36.1957
 21
64.8106
 31
0.0
  0
LINE
  8
0
 62
     0
 10
36.1957
 20
64.8106
 30
0.0
 11
36.1957
 21
78.8098
 31
0.0
  0
LINE
  8
0
 62
     0
 10
55.2457
 20
78.8098
 30
0.0
 11
69.245
 21
78.8098
 31
0.0
  0
LINE
  8
0
 62
     0
 10
69.245
 20
78.8098
 30
0.0
 11
69.245
 21
64.8106
 31
0.0
  0
LINE
  8
0
 62
     0
 10
69.245
 20
64.8106
 30
0.0
 11
55.2457
 21
64.8106
 31
0.0
  0
LINE
  8
0
 62
     0
 10
55.2457
 20
64.8106
 30
0.0
 11
55.2457
 21
78.8098
 31
0.0
  0
LINE
  8
0
 62
     0
 10
74.2957
 20
78.8098
 30
0.0
 11
88.295
 21
78.8098
 31
0.0
  0
LINE
  8
0
 62
     0
 10
88.295
 20
78.8098
 30
0.0
 11
88.295
 21
64.8106
 31
0.0
  0
LINE
  8
0
 62
     0
 10
88.295
 20
64.8106
 30
0.0
 11
74.2957
 21
64.8106
 31
0.0
  0
LINE
  8
0
 62
     0
 10
74.2957
 20
64.8106
 30
0.0
 11
74.2957
 21
78.8098
 31
0.0
  0
LINE
  8
0
 62
     0
 10
93.3457
 20
78.8098
 30
0.0
 11
107.345
 21
78.8098
 31
0.0
  0
LINE
  8
0
 62
     0
 10
107.345
 20
78.8098
 30
0.0
 11
107.345
 21
64.8106
 31
0.0
  0
LINE
  8
0
 62
     0
 10
107.345
 20
64.8106
 30
0.0
 11
93.3457
 21
64.8106
 31
0.0
  0
LINE
  8
0
 62
     0
 10
93.3457
 20
64.8106
 30
0.0
 11
93.3457
 21
78.8098
 31
0.0
  0
LINE
  8
0
 62
     0
 10
112.396
 20
78.8098
 30
0.0
 11
126.395
 21
78.8098
 31
0.0
  0
LINE
  8
0
 62
     0
 10
126.395
 20
78.8098
 30
0.0
 11
126.395
 21
64.8106
 31
0.0
  0
LINE
  8
0
 62
     0
 10
126.395
 20
64.8106
 30
0.0
 11
112.396
 21
64.8106
 31
0.0
  0
LINE
  8
0
 62
     0
 10
112.396
 20
64.8106
 30
0.0
 11
112.396
 21
78.8098
 31
0.0
  0
LINE
  8
0
 62
     0
 10
131.446
 20
78.8098
 30
0.0
 11
145.445
 21
78.8098
 31
0.0
  0
LINE
  8
0
 62
     0
 10
145.445
 20
78.8098
 30
0.0
 11
145.445
 21
64.8106
 31
0.0
  0
LINE
  8
0
 62
     0
 10
145.445
 20
64.8106
 30
0.0
 11
131.446
 21
64.8106
 31
0.0
  0
LINE
  8
0
 62
     0
 10
131.446
 20
64.8106
 30
0.0
 11
131.446
 21
78.8098
 31
0.0
  0
LINE
  8
0
 62
     0
 10
150.496
 20
78.8098
 30
0.0
 11
164.495
 21
78.8098
 31
0.0
  0
LINE
  8
0
 62
     0
 10
164.495
 20
78.8098
 30
0.0
 11
164.495
 21
64.8106
 31
0.0
  0
LINE
  8
0
 62
     0
 10
164.495
 20
64.8106
 30
0.0
 11
150.496
 21
64.8106
 31
0.0
  0
LINE
  8
0
 62
     0
 10
150.496
 20
64.8106
 30
0.0
 11
150.496
 21
78.8098
 31
0.0
  0
LINE
  8
0
 62
     0
 10
169.546
 20
78.8098
 30
0.0
 11
183.545
 21
78.8098
 31
0.0
  0
LINE
  8
0
 62
     0
 10
183.545
 20
78.8098
 30
0.0
 11
183.545
 21
64.8106
 31
0.0
  0
LINE
  8
0
 62
     0
 10
183.545
 20
64.8106
 30
0.0
 11
169.546
 21
64.8106
 31
0.0
  0
LINE
  8
0
 62
     0
 10
169.546
 20
64.8106
 30
0.0
 11
169.546
 21
78.8098
 31
0.0
  0
LINE
  8
0
 62
     0
 10
188.596
 20
78.8098
 30
0.0
 11
202.595
 21
78.8098
 31
0.0
  0
LINE
  8
0
 62
     0
 10
202.595
 20
78.8098
 30
0.0
 11
202.595
 21
64.8106
 31
0.0
  0
LINE
  8
0
 62
     0
 10
202.595
 20
64.8106
 30
0.0
 11
188.596
 21
64.8106
 31
0.0
  0
LINE
  8
0
 62
     0
 10
188.596
 20
64.8106
 30
0.0
 11
188.596
 21
78.8098
 31
0.0
  0
LINE
  8
0
 62
     0
 10
207.646
 20
78.8098
 30
0.0
 11
221.645
 21
78.8098
 31
0.0
  0
LINE
  8
0
 62
     0
 10
221.645
 20
78.8098
 30
0.0
 11
221.645
 21
64.8106
 31
0.0
  0
LINE
  8
0
 62
     0
 10
221.645
 20
64.8106
 30
0.0
 11
207.646
 21
64.8106
 31
0.0
  0
LINE
  8
0
 62
     0
 10
207.646
 20
64.8106
 30
0.0
 11
207.646
 21
78.8098
 31
0.0
  0
LINE
  8
0
 62
     0
 10
226.696
 20
78.8098
 30
0.0
 11
240.695
 21
78.8098
 31
0.0
  0
LINE
  8
0
 62
     0
 10
240.695
 20
78.8098
 30
0.0
 11
240.695
 21
64.8106
 31
0.0
  0
LINE
  8
0
 62
     0
 10
240.695
 20
64.8106
 30
0.0
 11
226.696
 21
64.8106
 31
0.0
  0
LINE
  8
0
 62
     0
 10
226.696
 20
64.8106
 30
0.0
 11
226.696
 21
78.8098
 31
0.0
  0
LINE
  8
0
 62
     0
 10
245.746
 20
78.8098
 30
0.0
 11
259.745
 21
78.8098
 31
0.0
  0
LINE
  8
0
 62
     0
 10
259.745
 20
78.8098
 30
0.0
 11
259.745
 21
64.8106
 31
0.0
  0
LINE
  8
0
 62
     0
 10
259.745
 20
64.8106
 30
0.0
 11
245.746
 21
64.8106
 31
0.0
  0
LINE
  8
0
 62
     0
 10
245.746
 20
64.8106
 30
0.0
 11
245.746
 21
78.8098
 31
0.0
  0
LINE
  8
0
 62
     0
 10
269.558
 20
78.8098
 30
0.0
 11
283.557
 21
78.8098
 31
0.0
  0
LINE
  8
0
 62
     0
 10
283.557
 20
78.8098
 30
0.0
 11
283.557
 21
64.8106
 31
0.0
  0
LINE
  8
0
 62
     0
 10
283.557
 20
64.8106
 30
0.0
 11
269.558
 21
64.8106
 31
0.0
  0
LINE
  8
0
 62
     0
 10
269.558
 20
64.8106
 30
0.0
 11
269.558
 21
78.8098
 31
0.0
  0
LINE
  8
0
 62
     0
 10
298.133
 20
78.8098
 30
0.0
 11
312.132
 21
78.8098
 31
0.0
  0
LINE
  8
0
 62
     0
 10
312.132
 20
78.8098
 30
0.0
 11
312.132
 21
64.8106
 31
0.0
  0
LINE
  8
0
 62
     0
 10
312.132
 20
64.8106
 30
0.0
 11
298.133
 21
64.8106
 31
0.0
  0
LINE
  8
0
 62
     0
 10
298.133
 20
64.8106
 30
0.0
 11
298.133
 21
78.8098
 31
0.0
  0
LINE
  8
0
 62
     0
 10
317.183
 20
78.8098
 30
0.0
 11
331.182
 21
78.8098
 31
0.0
  0
LINE
  8
0
 62
     0
 10
331.182
 20
78.8098
 30
0.0
 11
331.182
 21
64.8106
 31
0.0
  0
LINE
  8
0
 62
     0
 10
331.182
 20
64.8106
 30
0.0
 11
317.183
 21
64.8106
 31
0.0
  0
LINE
  8
0
 62
     0
 10
317.183
 20
64.8106
 30
0.0
 11
317.183
 21
78.8098
 31
0.0
  0
LINE
  8
0
 62
     0
 10
336.233
 20
78.8098
 30
0.0
 11
350.232
 21
78.8098
 31
0.0
  0
LINE
  8
0
 62
     0
 10
350.232
 20
78.8098
 30
0.0
 11
350.232
 21
64.8106
 31
0.0
  0
LINE
  8
0
 62
     0
 10
350.232
 20
64.8106
 30
0.0
 11
336.233
 21
64.8106
 31
0.0
  0
LINE
  8
0
 62
     0
 10
336.233
 20
64.8106
 30
0.0
 11
336.233
 21
78.8098
 31
0.0
  0
LINE
  8
0
 62
     0
 10
264.796
 20
97.8599
 30
0.0
 11
264.796
 21
93.1594
 31
0.0
  0
LINE
  8
0
 62
     0
 10
264.796
 20
93.1594
 30
0.0
 11
263.27
 21
93.1594
 31
0.0
  0
LINE
  8
0
 62
     0
 10
263.27
 20
93.1594
 30
0.0
 11
263.27
 21
96.3895
 31
0.0
  0
LINE
  8
0
 62
     0
 10
263.27
 20
96.3895
 30
0.0
 11
261.546
 21
96.3895
 31
0.0
  0
LINE
  8
0
 62
     0
 10
261.546
 20
96.3895
 30
0.0
 11
261.546
 21
97.3102
 31
0.0
  0
LINE
  8
0
 62
     0
 10
261.546
 20
97.3102
 30
0.0
 11
258.246
 21
97.3102
 31
0.0
  0
LINE
  8
0
 62
     0
 10
258.246
 20
97.3102
 30
0.0
 11
258.246
 21
96.3895
 31
0.0
  0
LINE
  8
0
 62
     0
 10
258.246
 20
96.3895
 30
0.0
 11
256.521
 21
96.3895
 31
0.0
  0
LINE
  8
0
 62
     0
 10
256.521
 20
96.3895
 30
0.0
 11
256.521
 21
93.1594
 31
0.0
  0
LINE
  8
0
 62
     0
 10
256.521
 20
93.1594
 30
0.0
 11
255.695
 21
93.1594
 31
0.0
  0
LINE
  8
0
 62
     0
 10
255.695
 20
93.1594
 30
0.0
 11
255.695
 21
90.3609
 31
0.0
  0
LINE
  8
0
 62
     0
 10
255.695
 20
90.3609
 30
0.0
 11
256.521
 21
90.3609
 31
0.0
  0
LINE
  8
0
 62
     0
 10
256.521
 20
90.3609
 30
0.0
 11
256.521
 21
84.0906
 31
0.0
  0
LINE
  8
0
 62
     0
 10
256.521
 20
84.0906
 30
0.0
 11
258.246
 21
84.0906
 31
0.0
  0
LINE
  8
0
 62
     0
 10
258.246
 20
84.0906
 30
0.0
 11
258.246
 21
83.1095
 31
0.0
  0
LINE
  8
0
 62
     0
 10
258.246
 20
83.1095
 30
0.0
 11
261.546
 21
83.1095
 31
0.0
  0
LINE
  8
0
 62
     0
 10
261.546
 20
83.1095
 30
0.0
 11
261.546
 21
84.0906
 31
0.0
  0
LINE
  8
0
 62
     0
 10
261.546
 20
84.0906
 30
0.0
 11
263.27
 21
84.0906
 31
0.0
  0
LINE
  8
0
 62
     0
 10
263.27
 20
84.0906
 30
0.0
 11
263.27
 21
88.5596
 31
0.0
  0
LINE
  8
0
 62
     0
 10
263.27
 20
88.5596
 30
0.0
 11
264.796
 21
88.5596
 31
0.0
  0
LINE
  8
0
 62
     0
 10
264.796
 20
88.5596
 30
0.0
 11
264.796
 21
83.8606
 31
0.0
  0
LINE
  8
0
 62
     0
 10
264.796
 20
83.8606
 30
0.0
 11
278.795
 21
83.8606
 31
0.0
  0
LINE
  8
0
 62
     0
 10
278.795
 20
83.8606
 30
0.0
 11
278.795
 21
88.5596
 31
0.0
  0
LINE
  8
0
 62
     0
 10
278.795
 20
88.5596
 30
0.0
 11
280.32
 21
88.5596
 31
0.0
  0
LINE
  8
0
 62
     0
 10
280.32
 20
88.5596
 30
0.0
 11
280.32
 21
84.0906
 31
0.0
  0
LINE
  8
0
 62
     0
 10
280.32
 20
84.0906
 30
0.0
 11
282.046
 21
84.0906
 31
0.0
  0
LINE
  8
0
 62
     0
 10
282.046
 20
84.0906
 30
0.0
 11
282.046
 21
83.1095
 31
0.0
  0
LINE
  8
0
 62
     0
 10
282.046
 20
83.1095
 30
0.0
 11
285.345
 21
83.1095
 31
0.0
  0
LINE
  8
0
 62
     0
 10
285.345
 20
83.1095
 30
0.0
 11
285.345
 21
84.0906
 31
0.0
  0
LINE
  8
0
 62
     0
 10
285.345
 20
84.0906
 30
0.0
 11
287.07
 21
84.0906
 31
0.0
  0
LINE
  8
0
 62
     0
 10
287.07
 20
84.0906
 30
0.0
 11
287.07
 21
90.3609
 31
0.0
  0
LINE
  8
0
 62
     0
 10
287.07
 20
90.3609
 30
0.0
 11
287.896
 21
90.3609
 31
0.0
  0
LINE
  8
0
 62
     0
 10
287.896
 20
90.3609
 30
0.0
 11
287.896
 21
93.1594
 31
0.0
  0
LINE
  8
0
 62
     0
 10
287.896
 20
93.1594
 30
0.0
 11
287.07
 21
93.1594
 31
0.0
  0
LINE
  8
0
 62
     0
 10
287.07
 20
93.1594
 30
0.0
 11
287.07
 21
96.3895
 31
0.0
  0
LINE
  8
0
 62
     0
 10
287.07
 20
96.3895
 30
0.0
 11
285.345
 21
96.3895
 31
0.0
  0
LINE
  8
0
 62
     0
 10
285.345
 20
96.3895
 30
0.0
 11
285.345
 21
97.3102
 31
0.0
  0
LINE
  8
0
 62
     0
 10
285.345
 20
97.3102
 30
0.0
 11
282.046
 21
97.3102
 31
0.0
  0
LINE
  8
0
 62
     0
 10
282.046
 20
97.3102
 30
0.0
 11
282.046
 21
96.3895
 31
0.0
  0
LINE
  8
0
 62
     0
 10
282.046
 20
96.3895
 30
0.0
 11
280.32
 21
96.3895
 31
0.0
  0
LINE
  8
0
 62
     0
 10
280.32
 20
96.3895
 30
0.0
 11
280.32
 21
93.1594
 31
0.0
  0
LINE
  8
0
 62
     0
 10
280.32
 20
93.1594
 30
0.0
 11
278.795
 21
93.1594
 31
0.0
  0
LINE
  8
0
 62
     0
 10
278.795
 20
93.1594
 30
0.0
 11
278.795
 21
97.8599
 31
0.0
  0
LINE
  8
0
 62
     0
 10
278.795
 20
97.8599
 30
0.0
 11
264.796
 21
97.8599
 31
0.0
  0
LINE
  8
0
 62
     0
 10
7.61919
 20
97.8599
 30
0.0
 11
21.6201
 21
97.8599
 31
0.0
  0
LINE
  8
0
 62
     0
 10
21.6201
 20
97.8599
 30
0.0
 11
21.6201
 21
83.8606
 31
0.0
  0
LINE
  8
0
 62
     0
 10
21.6201
 20
83.8606
 30
0.0
 11
7.61919
 21
83.8606
 31
0.0
  0
LINE
  8
0
 62
     0
 10
7.61919
 20
83.8606
 30
0.0
 11
7.61919
 21
97.8599
 31
0.0
  0
LINE
  8
0
 62
     0
 10
26.6706
 20
97.8599
 30
0.0
 11
40.67
 21
97.8599
 31
0.0
  0
LINE
  8
0
 62
     0
 10
40.67
 20
97.8599
 30
0.0
 11
40.67
 21
83.8606
 31
0.0
  0
LINE
  8
0
 62
     0
 10
40.67
 20
83.8606
 30
0.0
 11
26.6706
 21
83.8606
 31
0.0
  0
LINE
  8
0
 62
     0
 10
26.6706
 20
83.8606
 30
0.0
 11
26.6706
 21
97.8599
 31
0.0
  0
LINE
  8
0
 62
     0
 10
45.7207
 20
97.8599
 30
0.0
 11
59.72
 21
97.8599
 31
0.0
  0
LINE
  8
0
 62
     0
 10
59.72
 20
97.8599
 30
0.0
 11
59.72
 21
83.8606
 31
0.0
  0
LINE
  8
0
 62
     0
 10
59.72
 20
83.8606
 30
0.0
 11
45.7207
 21
83.8606
 31
0.0
  0
LINE
  8
0
 62
     0
 10
45.7207
 20
83.8606
 30
0.0
 11
45.7207
 21
97.8599
 31
0.0
  0
LINE
  8
0
 62
     0
 10
64.7707
 20
97.8599
 30
0.0
 11
78.77
 21
97.8599
 31
0.0
  0
LINE
  8
0
 62
     0
 10
78.77
 20
97.8599
 30
0.0
 11
78.77
 21
83.8606
 31
0.0
  0
LINE
  8
0
 62
     0
 10
78.77
 20
83.8606
 30
0.0
 11
64.7707
 21
83.8606
 31
0.0
  0
LINE
  8
0
 62
     0
 10
64.7707
 20
83.8606
 30
0.0
 11
64.7707
 21
97.8599
 31
0.0
  0
LINE
  8
0
 62
     0
 10
83.8207
 20
97.8599
 30
0.0
 11
97.82
 21
97.8599
 31
0.0
  0
LINE
  8
0
 62
     0
 10
97.82
 20
97.8599
 30
0.0
 11
97.82
 21
83.8606
 31
0.0
  0
LINE
  8
0
 62
     0
 10
97.82
 20
83.8606
 30
0.0
 11
83.8207
 21
83.8606
 31
0.0
  0
LINE
  8
0
 62
     0
 10
83.8207
 20
83.8606
 30
0.0
 11
83.8207
 21
97.8599
 31
0.0
  0
LINE
  8
0
 62
     0
 10
102.869
 20
97.8599
 30
0.0
 11
116.87
 21
97.8599
 31
0.0
  0
LINE
  8
0
 62
     0
 10
116.87
 20
97.8599
 30
0.0
 11
116.87
 21
83.8606
 31
0.0
  0
LINE
  8
0
 62
     0
 10
116.87
 20
83.8606
 30
0.0
 11
102.869
 21
83.8606
 31
0.0
  0
LINE
  8
0
 62
     0
 10
102.869
 20
83.8606
 30
0.0
 11
102.869
 21
97.8599
 31
0.0
  0
LINE
  8
0
 62
     0
 10
121.919
 20
97.8599
 30
0.0
 11
135.92
 21
97.8599
 31
0.0
  0
LINE
  8
0
 62
     0
 10
135.92
 20
97.8599
 30
0.0
 11
135.92
 21
83.8606
 31
0.0
  0
LINE
  8
0
 62
     0
 10
135.92
 20
83.8606
 30
0.0
 11
121.919
 21
83.8606
 31
0.0
  0
LINE
  8
0
 62
     0
 10
121.919
 20
83.8606
 30
0.0
 11
121.919
 21
97.8599
 31
0.0
  0
LINE
  8
0
 62
     0
 10
140.971
 20
97.8599
 30
0.0
 11
154.97
 21
97.8599
 31
0.0
  0
LINE
  8
0
 62
     0
 10
154.97
 20
97.8599
 30
0.0
 11
154.97
 21
83.8606
 31
0.0
  0
LINE
  8
0
 62
     0
 10
154.97
 20
83.8606
 30
0.0
 11
140.971
 21
83.8606
 31
0.0
  0
LINE
  8
0
 62
     0
 10
140.971
 20
83.8606
 30
0.0
 11
140.971
 21
97.8599
 31
0.0
  0
LINE
  8
0
 62
     0
 10
160.021
 20
97.8599
 30
0.0
 11
174.02
 21
97.8599
 31
0.0
  0
LINE
  8
0
 62
     0
 10
174.02
 20
97.8599
 30
0.0
 11
174.02
 21
83.8606
 31
0.0
  0
LINE
  8
0
 62
     0
 10
174.02
 20
83.8606
 30
0.0
 11
160.021
 21
83.8606
 31
0.0
  0
LINE
  8
0
 62
     0
 10
160.021
 20
83.8606
 30
0.0
 11
160.021
 21
97.8599
 31
0.0
  0
LINE
  8
0
 62
     0
 10
179.071
 20
97.8599
 30
0.0
 11
193.07
 21
97.8599
 31
0.0
  0
LINE
  8
0
 62
     0
 10
193.07
 20
97.8599
 30
0.0
 11
193.07
 21
83.8606
 31
0.0
  0
LINE
  8
0
 62
     0
 10
193.07
 20
83.8606
 30
0.0
 11
179.071
 21
83.8606
 31
0.0
  0
LINE
  8
0
 62
     0
 10
179.071
 20
83.8606
 30
0.0
 11
179.071
 21
97.8599
 31
0.0
  0
LINE
  8
0
 62
     0
 10
198.121
 20
97.8599
 30
0.0
 11
212.12
 21
97.8599
 31
0.0
  0
LINE
  8
0
 62
     0
 10
212.12
 20
97.8599
 30
0.0
 11
212.12
 21
83.8606
 31
0.0
  0
LINE
  8
0
 62
     0
 10
212.12
 20
83.8606
 30
0.0
 11
198.121
 21
83.8606
 31
0.0
  0
LINE
  8
0
 62
     0
 10
198.121
 20
83.8606
 30
0.0
 11
198.121
 21
97.8599
 31
0.0
  0
LINE
  8
0
 62
     0
 10
217.171
 20
97.8599
 30
0.0
 11
231.17
 21
97.8599
 31
0.0
  0
LINE
  8
0
 62
     0
 10
231.17
 20
97.8599
 30
0.0
 11
231.17
 21
83.8606
 31
0.0
  0
LINE
  8
0
 62
     0
 10
231.17
 20
83.8606
 30
0.0
 11
217.171
 21
83.8606
 31
0.0
  0
LINE
  8
0
 62
     0
 10
217.171
 20
83.8606
 30
0.0
 11
217.171
 21
97.8599
 31
0.0
  0
LINE
  8
0
 62
     0
 10
236.221
 20
97.8599
 30
0.0
 11
250.22
 21
97.8599
 31
0.0
  0
LINE
  8
0
 62
     0
 10
250.22
 20
97.8599
 30
0.0
 11
250.22
 21
83.8606
 31
0.0
  0
LINE
  8
0
 62
     0
 10
250.22
 20
83.8606
 30
0.0
 11
236.221
 21
83.8606
 31
0.0
  0
LINE
  8
0
 62
     0
 10
236.221
 20
83.8606
 30
0.0
 11
236.221
 21
97.8599
 31
0.0
  0
LINE
  8
0
 62
     0
 10
298.133
 20
97.8599
 30
0.0
 11
312.132
 21
97.8599
 31
0.0
  0
LINE
  8
0
 62
     0
 10
312.132
 20
97.8599
 30
0.0
 11
312.132
 21
83.8606
 31
0.0
  0
LINE
  8
0
 62
     0
 10
312.132
 20
83.8606
 30
0.0
 11
298.133
 21
83.8606
 31
0.0
  0
LINE
  8
0
 62
     0
 10
298.133
 20
83.8606
 30
0.0
 11
298.133
 21
97.8599
 31
0.0
  0
LINE
  8
0
 62
     0
 10
317.183
 20
97.8599
 30
0.0
 11
331.182
 21
97.8599
 31
0.0
  0
LINE
  8
0
 62
     0
 10
331.182
 20
97.8599
 30
0.0
 11
331.182
 21
83.8606
 31
0.0
  0
LINE
  8
0
 62
     0
 10
331.182
 20
83.8606
 30
0.0
 11
317.183
 21
83.8606
 31
0.0
  0
LINE
  8
0
 62
     0
 10
317.183
 20
83.8606
 30
0.0
 11
317.183
 21
97.8599
 31
0.0
  0
LINE
  8
0
 62
     0
 10
336.233
 20
97.8599
 30
0.0
 11
350.232
 21
97.8599
 31
0.0
  0
LINE
  8
0
 62
     0
 10
350.232
 20
97.8599
 30
0.0
 11
350.232
 21
83.8606
 31
0.0
  0
LINE
  8
0
 62
     0
 10
350.232
 20
83.8606
 30
0.0
 11
336.233
 21
83.8606
 31
0.0
  0
LINE
  8
0
 62
     0
 10
336.233
 20
83.8606
 30
0.0
 11
336.233
 21
97.8599
 31
0.0
  0
LINE
  8
0
 62
     0
 10
7.61919
 20
126.436
 30
0.0
 11
21.6201
 21
126.436
 31
0.0
  0
LINE
  8
0
 62
     0
 10
21.6201
 20
126.436
 30
0.0
 11
21.6201
 21
112.436
 31
0.0
  0
LINE
  8
0
 62
     0
 10
21.6201
 20
112.436
 30
0.0
 11
7.61919
 21
112.436
 31
0.0
  0
LINE
  8
0
 62
     0
 10
7.61919
 20
112.436
 30
0.0
 11
7.61919
 21
126.436
 31
0.0
  0
LINE
  8
0
 62
     0
 10
45.7207
 20
126.436
 30
0.0
 11
59.72
 21
126.436
 31
0.0
  0
LINE
  8
0
 62
     0
 10
59.72
 20
126.436
 30
0.0
 11
59.72
 21
112.436
 31
0.0
  0
LINE
  8
0
 62
     0
 10
59.72
 20
112.436
 30
0.0
 11
45.7207
 21
112.436
 31
0.0
  0
LINE
  8
0
 62
     0
 10
45.7207
 20
112.436
 30
0.0
 11
45.7207
 21
126.436
 31
0.0
  0
LINE
  8
0
 62
     0
 10
64.7707
 20
126.436
 30
0.0
 11
78.77
 21
126.436
 31
0.0
  0
LINE
  8
0
 62
     0
 10
78.77
 20
126.436
 30
0.0
 11
78.77
 21
112.436
 31
0.0
  0
LINE
  8
0
 62
     0
 10
78.77
 20
112.436
 30
0.0
 11
64.7707
 21
112.436
 31
0.0
  0
LINE
  8
0
 62
     0
 10
64.7707
 20
112.436
 30
0.0
 11
64.7707
 21
126.436
 31
0.0
  0
LINE
  8
0
 62
     0
 10
83.8207
 20
126.436
 30
0.0
 11
97.82
 21
126.436
 31
0.0
  0
LINE
  8
0
 62
     0
 10
97.82
 20
126.436
 30
0.0
 11
97.82
 21
112.436
 31
0.0
  0
LINE
  8
0
 62
     0
 10
97.82
 20
112.436
 30
0.0
 11
83.8207
 21
112.436
 31
0.0
  0
LINE
  8
0
 62
     0
 10
83.8207
 20
112.436
 30
0.0
 11
83.8207
 21
126.436
 31
0.0
  0
LINE
  8
0
 62
     0
 10
102.869
 20
126.436
 30
0.0
 11
116.87
 21
126.436
 31
0.0
  0
LINE
  8
0
 62
     0
 10
116.87
 20
126.436
 30
0.0
 11
116.87
 21
112.436
 31
0.0
  0
LINE
  8
0
 62
     0
 10
116.87
 20
112.436
 30
0.0
 11
102.869
 21
112.436
 31
0.0
  0
LINE
  8
0
 62
     0
 10
102.869
 20
112.436
 30
0.0
 11
102.869
 21
126.436
 31
0.0
  0
LINE
  8
0
 62
     0
 10
131.446
 20
126.436
 30
0.0
 11
145.445
 21
126.436
 31
0.0
  0
LINE
  8
0
 62
     0
 10
145.445
 20
126.436
 30
0.0
 11
145.445
 21
112.436
 31
0.0
  0
LINE
  8
0
 62
     0
 10
145.445
 20
112.436
 30
0.0
 11
131.446
 21
112.436
 31
0.0
  0
LINE
  8
0
 62
     0
 10
131.446
 20
112.436
 30
0.0
 11
131.446
 21
126.436
 31
0.0
  0
LINE
  8
0
 62
     0
 10
150.496
 20
126.436
 30
0.0
 11
164.495
 21
126.436
 31
0.0
  0
LINE
  8
0
 62
     0
 10
164.495
 20
126.436
 30
0.0
 11
164.495
 21
112.436
 31
0.0
  0
LINE
  8
0
 62
     0
 10
164.495
 20
112.436
 30
0.0
 11
150.496
 21
112.436
 31
0.0
  0
LINE
  8
0
 62
     0
 10
150.496
 20
112.436
 30
0.0
 11
150.496
 21
126.436
 31
0.0
  0
LINE
  8
0
 62
     0
 10
169.546
 20
126.436
 30
0.0
 11
183.545
 21
126.436
 31
0.0
  0
LINE
  8
0
 62
     0
 10
183.545
 20
126.436
 30
0.0
 11
183.545
 21
112.436
 31
0.0
  0
LINE
  8
0
 62
     0
 10
183.545
 20
112.436
 30
0.0
 11
169.546
 21
112.436
 31
0.0
  0
LINE
  8
0
 62
     0
 10
169.546
 20
112.436
 30
0.0
 11
169.546
 21
126.436
 31
0.0
  0
LINE
  8
0
 62
     0
 10
188.596
 20
126.436
 30
0.0
 11
202.595
 21
126.436
 31
0.0
  0
LINE
  8
0
 62
     0
 10
202.595
 20
126.436
 30
0.0
 11
202.595
 21
112.436
 31
0.0
  0
LINE
  8
0
 62
     0
 10
202.595
 20
112.436
 30
0.0
 11
188.596
 21
112.436
 31
0.0
  0
LINE
  8
0
 62
     0
 10
188.596
 20
112.436
 30
0.0
 11
188.596
 21
126.436
 31
0.0
  0
LINE
  8
0
 62
     0
 10
217.171
 20
126.436
 30
0.0
 11
231.17
 21
126.436
 31
0.0
  0
LINE
  8
0
 62
     0
 10
231.17
 20
126.436
 30
0.0
 11
231.17
 21
112.436
 31
0.0
  0
LINE
  8
0
 62
     0
 10
231.17
 20
112.436
 30
0.0
 11
217.171
 21
112.436
 31
0.0
  0
LINE
  8
0
 62
     0
 10
217.171
 20
112.436
 30
0.0
 11
217.171
 21
126.436
 31
0.0
  0
LINE
  8
0
 62
     0
 10
236.221
 20
126.436
 30
0.0
 11
250.22
 21
126.436
 31
0.0
  0
LINE
  8
0
 62
     0
 10
250.22
 20
126.436
 30
0.0
 11
250.22
 21
112.436
 31
0.0
  0
LINE
  8
0
 62
     0
 10
250.22
 20
112.436
 30
0.0
 11
236.221
 21
112.436
 31
0.0
  0
LINE
  8
0
 62
     0
 10
236.221
 20
112.436
 30
0.0
 11
236.221
 21
126.436
 31
0.0
  0
LINE
  8
0
 62
     0
 10
255.271
 20
126.436
 30
0.0
 11
269.27
 21
126.436
 31
0.0
  0
LINE
  8
0
 62
     0
 10
269.27
 20
126.436
 30
0.0
 11
269.27
 21
112.436
 31
0.0
  0
LINE
  8
0
 62
     0
 10
269.27
 20
112.436
 30
0.0
 11
255.271
 21
112.436
 31
0.0
  0
LINE
  8
0
 62
     0
 10
255.271
 20
112.436
 30
0.0
 11
255.271
 21
126.436
 31
0.0
  0
LINE
  8
0
 62
     0
 10
274.321
 20
126.436
 30
0.0
 11
288.32
 21
126.436
 31
0.0
  0
LINE
  8
0
 62
     0
 10
288.32
 20
126.436
 30
0.0
 11
288.32
 21
112.436
 31
0.0
  0
LINE
  8
0
 62
     0
 10
288.32
 20
112.436
 30
0.0
 11
274.321
 21
112.436
 31
0.0
  0
LINE
  8
0
 62
     0
 10
274.321
 20
112.436
 30
0.0
 11
274.321
 21
126.436
 31
0.0
  0
LINE
  8
0
 62
     0
 10
298.133
 20
126.436
 30
0.0
 11
312.132
 21
126.436
 31
0.0
  0
LINE
  8
0
 62
     0
 10
312.132
 20
126.436
 30
0.0
 11
312.132
 21
112.436
 31
0.0
  0
LINE
  8
0
 62
     0
 10
312.132
 20
112.436
 30
0.0
 11
298.133
 21
112.436
 31
0.0
  0
LINE
  8
0
 62
     0
 10
298.133
 20
112.436
 30
0.0
 11
298.133
 21
126.436
 31
0.0
  0
LINE
  8
0
 62
     0
 10
317.183
 20
126.436
 30
0.0
 11
331.182
 21
126.436
 31
0.0
  0
LINE
  8
0
 62
     0
 10
331.182
 20
126.436
 30
0.0
 11
331.182
 21
112.436
 31
0.0
  0
LINE
  8
0
 62
     0
 10
331.182
 20
112.436
 30
0.0
 11
317.183
 21
112.436
 31
0.0
  0
LINE
  8
0
 62
     0
 10
317.183
 20
112.436
 30
0.0
 11
317.183
 21
126.436
 31
0.0
  0
LINE
  8
0
 62
     0
 10
336.233
 20
126.436
 30
0.0
 11
350.232
 21
126.436
 31
0.0
  0
LINE
  8
0
 62
     0
 10
350.232
 20
126.436
 30
0.0
 11
350.232
 21
112.436
 31
0.0
  0
LINE
  8
0
 62
     0
 10
350.232
 20
112.436
 30
0.0
 11
336.233
 21
112.436
 31
0.0
  0
LINE
  8
0
 62
     0
 10
336.233
 20
112.436
 30
0.0
 11
336.233
 21
126.436
 31
0.0
  0
LINE
  8
0
 62
     0
 10
119.655
 20
132.982
 30
0.0
 11
119.21
 21
132.755
 31
0.0
  0
LINE
  8
0
 62
     0
 10
119.21
 20
132.755
 30
0.0
 11
118.856
 21
132.401
 31
0.0
  0
LINE
  8
0
 62
     0
 10
118.856
 20
132.401
 30
0.0
 11
118.627
 21
131.955
 31
0.0
  0
LINE
  8
0
 62
     0
 10
118.627
 20
131.955
 30
0.0
 11
118.55
 21
131.461
 31
0.0
  0
LINE
  8
0
 62
     0
 10
118.55
 20
131.461
 30
0.0
 11
118.627
 21
130.966
 31
0.0
  0
LINE
  8
0
 62
     0
 10
118.627
 20
130.966
 30
0.0
 11
118.856
 21
130.52
 31
0.0
  0
LINE
  8
0
 62
     0
 10
118.856
 20
130.52
 30
0.0
 11
119.21
 21
130.167
 31
0.0
  0
LINE
  8
0
 62
     0
 10
119.21
 20
130.167
 30
0.0
 11
119.655
 21
129.939
 31
0.0
  0
LINE
  8
0
 62
     0
 10
119.655
 20
129.939
 30
0.0
 11
120.15
 21
129.859
 31
0.0
  0
LINE
  8
0
 62
     0
 10
120.15
 20
129.859
 30
0.0
 11
120.643
 21
129.939
 31
0.0
  0
LINE
  8
0
 62
     0
 10
120.643
 20
129.939
 30
0.0
 11
121.09
 21
130.167
 31
0.0
  0
LINE
  8
0
 62
     0
 10
121.09
 20
130.167
 30
0.0
 11
121.444
 21
130.52
 31
0.0
  0
LINE
  8
0
 62
     0
 10
121.444
 20
130.52
 30
0.0
 11
121.671
 21
130.966
 31
0.0
  0
LINE
  8
0
 62
     0
 10
121.671
 20
130.966
 30
0.0
 11
121.75
 21
131.461
 31
0.0
  0
LINE
  8
0
 62
     0
 10
121.75
 20
131.461
 30
0.0
 11
121.671
 21
131.955
 31
0.0
  0
LINE
  8
0
 62
     0
 10
121.671
 20
131.955
 30
0.0
 11
121.444
 21
132.401
 31
0.0
  0
LINE
  8
0
 62
     0
 10
121.444
 20
132.401
 30
0.0
 11
121.09
 21
132.755
 31
0.0
  0
LINE
  8
0
 62
     0
 10
121.09
 20
132.755
 30
0.0
 11
120.643
 21
132.982
 31
0.0
  0
LINE
  8
0
 62
     0
 10
120.643
 20
132.982
 30
0.0
 11
120.15
 21
133.061
 31
0.0
  0
LINE
  8
0
 62
     0
 10
120.15
 20
133.061
 30
0.0
 11
119.655
 21
132.982
 31
0.0
  0
LINE
  8
0
 62
     0
 10
237.21
 20
132.982
 30
0.0
 11
236.764
 21
132.755
 31
0.0
  0
LINE
  8
0
 62
     0
 10
236.764
 20
132.755
 30
0.0
 11
236.409
 21
132.401
 31
0.0
  0
LINE
  8
0
 62
     0
 10
236.409
 20
132.401
 30
0.0
 11
236.182
 21
131.955
 31
0.0
  0
LINE
  8
0
 62
     0
 10
236.182
 20
131.955
 30
0.0
 11
236.105
 21
131.461
 31
0.0
  0
LINE
  8
0
 62
     0
 10
236.105
 20
131.461
 30
0.0
 11
236.182
 21
130.966
 31
0.0
  0
LINE
  8
0
 62
     0
 10
236.182
 20
130.966
 30
0.0
 11
236.409
 21
130.52
 31
0.0
  0
LINE
  8
0
 62
     0
 10
236.409
 20
130.52
 30
0.0
 11
236.764
 21
130.167
 31
0.0
  0
LINE
  8
0
 62
     0
 10
236.764
 20
130.167
 30
0.0
 11
237.21
 21
129.939
 31
0.0
  0
LINE
  8
0
 62
     0
 10
237.21
 20
129.939
 30
0.0
 11
237.705
 21
129.859
 31
0.0
  0
LINE
  8
0
 62
     0
 10
237.705
 20
129.859
 30
0.0
 11
238.198
 21
129.939
 31
0.0
  0
LINE
  8
0
 62
     0
 10
238.198
 20
129.939
 30
0.0
 11
238.645
 21
130.167
 31
0.0
  0
LINE
  8
0
 62
     0
 10
238.645
 20
130.167
 30
0.0
 11
238.999
 21
130.52
 31
0.0
  0
LINE
  8
0
 62
     0
 10
238.999
 20
130.52
 30
0.0
 11
239.226
 21
130.966
 31
0.0
  0
LINE
  8
0
 62
     0
 10
239.226
 20
130.966
 30
0.0
 11
239.305
 21
131.461
 31
0.0
  0
LINE
  8
0
 62
     0
 10
239.305
 20
131.461
 30
0.0
 11
239.226
 21
131.955
 31
0.0
  0
LINE
  8
0
 62
     0
 10
239.226
 20
131.955
 30
0.0
 11
238.999
 21
132.401
 31
0.0
  0
LINE
  8
0
 62
     0
 10
238.999
 20
132.401
 30
0.0
 11
238.645
 21
132.755
 31
0.0
  0
LINE
  8
0
 62
     0
 10
238.645
 20
132.755
 30
0.0
 11
238.198
 21
132.982
 31
0.0
  0
LINE
  8
0
 62
     0
 10
238.198
 20
132.982
 30
0.0
 11
237.705
 21
133.061
 31
0.0
  0
LINE
  8
0
 62
     0
 10
237.705
 20
133.061
 30
0.0
 11
237.21
 21
132.982
 31
0.0
  0
LINE
  8
0
 62
     0
 10
354.764
 20
132.982
 30
0.0
 11
354.319
 21
132.755
 31
0.0
  0
LINE
  8
0
 62
     0
 10
354.319
 20
132.755
 30
0.0
 11
353.963
 21
132.401
 31
0.0
  0
LINE
  8
0
 62
     0
 10
353.963
 20
132.401
 30
0.0
 11
353.737
 21
131.955
 31
0.0
  0
LINE
  8
0
 62
     0
 10
353.737
 20
131.955
 30
0.0
 11
353.66
 21
131.461
 31
0.0
  0
LINE
  8
0
 62
     0
 10
353.66
 20
131.461
 30
0.0
 11
353.737
 21
130.966
 31
0.0
  0
LINE
  8
0
 62
     0
 10
353.737
 20
130.966
 30
0.0
 11
353.963
 21
130.52
 31
0.0
  0
LINE
  8
0
 62
     0
 10
353.963
 20
130.52
 30
0.0
 11
354.319
 21
130.167
 31
0.0
  0
LINE
  8
0
 62
     0
 10
354.319
 20
130.167
 30
0.0
 11
354.764
 21
129.939
 31
0.0
  0
LINE
  8
0
 62
     0
 10
354.764
 20
129.939
 30
0.0
 11
355.258
 21
129.859
 31
0.0
  0
LINE
  8
0
 62
     0
 10
355.258
 20
129.859
 30
0.0
 11
355.752
 21
129.939
 31
0.0
  0
LINE
  8
0
 62
     0
 10
355.752
 20
129.939
 30
0.0
 11
356.2
 21
130.167
 31
0.0
  0
LINE
  8
0
 62
     0
 10
356.2
 20
130.167
 30
0.0
 11
356.553
 21
130.52
 31
0.0
  0
LINE
  8
0
 62
     0
 10
356.553
 20
130.52
 30
0.0
 11
356.782
 21
130.966
 31
0.0
  0
LINE
  8
0
 62
     0
 10
356.782
 20
130.966
 30
0.0
 11
356.859
 21
131.461
 31
0.0
  0
LINE
  8
0
 62
     0
 10
356.859
 20
131.461
 30
0.0
 11
356.782
 21
131.955
 31
0.0
  0
LINE
  8
0
 62
     0
 10
356.782
 20
131.955
 30
0.0
 11
356.553
 21
132.401
 31
0.0
  0
LINE
  8
0
 62
     0
 10
356.553
 20
132.401
 30
0.0
 11
356.2
 21
132.755
 31
0.0
  0
LINE
  8
0
 62
     0
 10
356.2
 20
132.755
 30
0.0
 11
355.752
 21
132.982
 31
0.0
  0
LINE
  8
0
 62
     0
 10
355.752
 20
132.982
 30
0.0
 11
355.258
 21
133.061
 31
0.0
  0
LINE
  8
0
 62
     0
 10
355.258
 20
133.061
 30
0.0
 11
354.764
 21
132.982
 31
0.0
  0
LINE
  8
0
 62
     0
 10
2.10013
 20
132.982
 30
0.0
 11
1.65503
 21
132.755
 31
0.0
  0
LINE
  8
0
 62
     0
 10
1.65503
 20
132.755
 30
0.0
 11
1.30087
 21
132.401
 31
0.0
  0
LINE
  8
0
 62
     0
 10
1.30087
 20
132.401
 30
0.0
 11
1.07349
 21
131.955
 31
0.0
  0
LINE
  8
0
 62
     0
 10
1.07349
 20
131.955
 30
0.0
 11
0.994943
 21
131.461
 31
0.0
  0
LINE
  8
0
 62
     0
 10
0.994943
 20
131.461
 30
0.0
 11
1.07349
 21
130.966
 31
0.0
  0
LINE
  8
0
 62
     0
 10
1.07349
 20
130.966
 30
0.0
 11
1.30087
 21
130.52
 31
0.0
  0
LINE
  8
0
 62
     0
 10
1.30087
 20
130.52
 30
0.0
 11
1.65503
 21
130.167
 31
0.0
  0
LINE
  8
0
 62
     0
 10
1.65503
 20
130.167
 30
0.0
 11
2.10013
 21
129.939
 31
0.0
  0
LINE
  8
0
 62
     0
 10
2.10013
 20
129.939
 30
0.0
 11
2.59485
 21
129.859
 31
0.0
  0
LINE
  8
0
 62
     0
 10
2.59485
 20
129.859
 30
0.0
 11
3.08956
 21
129.939
 31
0.0
  0
LINE
  8
0
 62
     0
 10
3.08956
 20
129.939
 30
0.0
 11
3.53603
 21
130.167
 31
0.0
  0
LINE
  8
0
 62
     0
 10
3.53603
 20
130.167
 30
0.0
 11
3.88881
 21
130.52
 31
0.0
  0
LINE
  8
0
 62
     0
 10
3.88881
 20
130.52
 30
0.0
 11
4.11621
 21
130.966
 31
0.0
  0
LINE
  8
0
 62
     0
 10
4.11621
 20
130.966
 30
0.0
 11
4.19612
 21
131.461
 31
0.0
  0
LINE
  8
0
 62
     0
 10
4.19612
 20
131.461
 30
0.0
 11
4.11621
 21
131.955
 31
0.0
  0
LINE
  8
0
 62
     0
 10
4.11621
 20
131.955
 30
0.0
 11
3.88881
 21
132.401
 31
0.0
  0
LINE
  8
0
 62
     0
 10
3.88881
 20
132.401
 30
0.0
 11
3.53603
 21
132.755
 31
0.0
  0
LINE
  8
0
 62
     0
 10
3.53603
 20
132.755
 30
0.0
 11
3.08956
 21
132.982
 31
0.0
  0
LINE
  8
0
 62
     0
 10
3.08956
 20
132.982
 30
0.0
 11
2.59485
 21
133.061
 31
0.0
  0
LINE
  8
0
 62
     0
 10
2.59485
 20
133.061
 30
0.0
 11
2.10013
 21
132.982
 31
0.0
  0
ENDSEC
  0
EOF
