  0
SECTION
  2
HEADER
  9
$ACADVER
  1
AC1009
  9
$FILLMODE
 70
 0
  9
$SPLFRAME
 70
 1
  9
$EXTMIN
 10
0
 20
0
 30
0.0
  9
$EXTMAX
 10
1058.33
 20
1058.33
 30
0.0
  0
ENDSEC
  0
SECTION
  2
TABLES
  0
TABLE
  2
LAYER
 70
1
  0
LAYER
  2
0
 70
     0
 62
     7
  6
CONTINUOUS
  0
ENDTAB
  0
ENDSEC
  0
SECTION
  2
ENTITIES
  0
LINE
  8
0
 62
     0
 10
356.761
 20
133.96
 30
0.0
 11
356.835
 21
133.958
 31
0.0
  0
LINE
  8
0
 62
     0
 10
356.835
 20
133.958
 30
0.0
 11
356.916
 21
133.948
 31
0.0
  0
LINE
  8
0
 62
     0
 10
356.916
 20
133.948
 30
0.0
 11
356.993
 21
133.933
 31
0.0
  0
LINE
  8
0
 62
     0
 10
356.993
 20
133.933
 30
0.0
 11
357.068
 21
133.912
 31
0.0
  0
LINE
  8
0
 62
     0
 10
357.068
 20
133.912
 30
0.0
 11
357.142
 21
133.885
 31
0.0
  0
LINE
  8
0
 62
     0
 10
357.142
 20
133.885
 30
0.0
 11
357.212
 21
133.852
 31
0.0
  0
LINE
  8
0
 62
     0
 10
357.212
 20
133.852
 30
0.0
 11
357.279
 21
133.813
 31
0.0
  0
LINE
  8
0
 62
     0
 10
357.279
 20
133.813
 30
0.0
 11
357.346
 21
133.77
 31
0.0
  0
LINE
  8
0
 62
     0
 10
357.346
 20
133.77
 30
0.0
 11
357.41
 21
133.721
 31
0.0
  0
LINE
  8
0
 62
     0
 10
357.41
 20
133.721
 30
0.0
 11
357.466
 21
133.668
 31
0.0
  0
LINE
  8
0
 62
     0
 10
357.466
 20
133.668
 30
0.0
 11
357.519
 21
133.61
 31
0.0
  0
LINE
  8
0
 62
     0
 10
357.519
 20
133.61
 30
0.0
 11
357.569
 21
133.549
 31
0.0
  0
LINE
  8
0
 62
     0
 10
357.569
 20
133.549
 30
0.0
 11
357.611
 21
133.484
 31
0.0
  0
LINE
  8
0
 62
     0
 10
357.611
 20
133.484
 30
0.0
 11
357.65
 21
133.413
 31
0.0
  0
LINE
  8
0
 62
     0
 10
357.65
 20
133.413
 30
0.0
 11
357.681
 21
133.343
 31
0.0
  0
LINE
  8
0
 62
     0
 10
357.681
 20
133.343
 30
0.0
 11
357.71
 21
133.27
 31
0.0
  0
LINE
  8
0
 62
     0
 10
357.71
 20
133.27
 30
0.0
 11
357.731
 21
133.194
 31
0.0
  0
LINE
  8
0
 62
     0
 10
357.731
 20
133.194
 30
0.0
 11
357.748
 21
133.117
 31
0.0
  0
LINE
  8
0
 62
     0
 10
357.748
 20
133.117
 30
0.0
 11
357.755
 21
133.038
 31
0.0
  0
LINE
  8
0
 62
     0
 10
357.755
 20
133.038
 30
0.0
 11
357.759
 21
132.96
 31
0.0
  0
LINE
  8
0
 62
     0
 10
357.759
 20
132.96
 30
0.0
 11
357.759
 21
1.13412
 31
0.0
  0
LINE
  8
0
 62
     0
 10
357.759
 20
1.13412
 30
0.0
 11
357.755
 21
1.05558
 31
0.0
  0
LINE
  8
0
 62
     0
 10
357.755
 20
1.05558
 30
0.0
 11
357.748
 21
0.978408
 31
0.0
  0
LINE
  8
0
 62
     0
 10
357.748
 20
0.978408
 30
0.0
 11
357.731
 21
0.901238
 31
0.0
  0
LINE
  8
0
 62
     0
 10
357.731
 20
0.901238
 30
0.0
 11
357.71
 21
0.825444
 31
0.0
  0
LINE
  8
0
 62
     0
 10
357.71
 20
0.825444
 30
0.0
 11
357.681
 21
0.752408
 31
0.0
  0
LINE
  8
0
 62
     0
 10
357.681
 20
0.752408
 30
0.0
 11
357.65
 21
0.680752
 31
0.0
  0
LINE
  8
0
 62
     0
 10
357.65
 20
0.680752
 30
0.0
 11
357.611
 21
0.611851
 31
0.0
  0
LINE
  8
0
 62
     0
 10
357.611
 20
0.611851
 30
0.0
 11
357.569
 21
0.547081
 31
0.0
  0
LINE
  8
0
 62
     0
 10
357.569
 20
0.547081
 30
0.0
 11
357.519
 21
0.485069
 31
0.0
  0
LINE
  8
0
 62
     0
 10
357.519
 20
0.485069
 30
0.0
 11
357.466
 21
0.427193
 31
0.0
  0
LINE
  8
0
 62
     0
 10
357.466
 20
0.427193
 30
0.0
 11
357.41
 21
0.373447
 31
0.0
  0
LINE
  8
0
 62
     0
 10
357.41
 20
0.373447
 30
0.0
 11
357.346
 21
0.325217
 31
0.0
  0
LINE
  8
0
 62
     0
 10
357.346
 20
0.325217
 30
0.0
 11
357.279
 21
0.282498
 31
0.0
  0
LINE
  8
0
 62
     0
 10
357.279
 20
0.282498
 30
0.0
 11
357.212
 21
0.242535
 31
0.0
  0
LINE
  8
0
 62
     0
 10
357.212
 20
0.242535
 30
0.0
 11
357.142
 21
0.21084
 31
0.0
  0
LINE
  8
0
 62
     0
 10
357.142
 20
0.21084
 30
0.0
 11
357.068
 21
0.183279
 31
0.0
  0
LINE
  8
0
 62
     0
 10
357.068
 20
0.183279
 30
0.0
 11
356.993
 21
0.162609
 31
0.0
  0
LINE
  8
0
 62
     0
 10
356.993
 20
0.162609
 30
0.0
 11
356.916
 21
0.14745
 31
0.0
  0
LINE
  8
0
 62
     0
 10
356.916
 20
0.14745
 30
0.0
 11
356.835
 21
0.137804
 31
0.0
  0
LINE
  8
0
 62
     0
 10
356.835
 20
0.137804
 30
0.0
 11
356.761
 21
0.13367
 31
0.0
  0
LINE
  8
0
 62
     0
 10
356.761
 20
0.13367
 30
0.0
 11
1.09554
 21
0.13367
 31
0.0
  0
LINE
  8
0
 62
     0
 10
1.09554
 20
0.13367
 30
0.0
 11
1.01699
 21
0.137804
 31
0.0
  0
LINE
  8
0
 62
     0
 10
1.01699
 20
0.137804
 30
0.0
 11
0.938445
 21
0.14745
 31
0.0
  0
LINE
  8
0
 62
     0
 10
0.938445
 20
0.14745
 30
0.0
 11
0.861275
 21
0.162609
 31
0.0
  0
LINE
  8
0
 62
     0
 10
0.861275
 20
0.162609
 30
0.0
 11
0.785481
 21
0.183279
 31
0.0
  0
LINE
  8
0
 62
     0
 10
0.785481
 20
0.183279
 30
0.0
 11
0.712445
 21
0.21084
 31
0.0
  0
LINE
  8
0
 62
     0
 10
0.712445
 20
0.21084
 30
0.0
 11
0.642165
 21
0.242535
 31
0.0
  0
LINE
  8
0
 62
     0
 10
0.642165
 20
0.242535
 30
0.0
 11
0.571885
 21
0.282498
 31
0.0
  0
LINE
  8
0
 62
     0
 10
0.571885
 20
0.282498
 30
0.0
 11
0.507118
 21
0.325217
 31
0.0
  0
LINE
  8
0
 62
     0
 10
0.507118
 20
0.325217
 30
0.0
 11
0.445107
 21
0.373447
 31
0.0
  0
LINE
  8
0
 62
     0
 10
0.445107
 20
0.373447
 30
0.0
 11
0.38723
 21
0.427193
 31
0.0
  0
LINE
  8
0
 62
     0
 10
0.38723
 20
0.427193
 30
0.0
 11
0.334863
 21
0.485069
 31
0.0
  0
LINE
  8
0
 62
     0
 10
0.334863
 20
0.485069
 30
0.0
 11
0.285254
 21
0.547081
 31
0.0
  0
LINE
  8
0
 62
     0
 10
0.285254
 20
0.547081
 30
0.0
 11
0.242535
 21
0.611851
 31
0.0
  0
LINE
  8
0
 62
     0
 10
0.242535
 20
0.611851
 30
0.0
 11
0.20395
 21
0.680752
 31
0.0
  0
LINE
  8
0
 62
     0
 10
0.20395
 20
0.680752
 30
0.0
 11
0.170877
 21
0.752408
 31
0.0
  0
LINE
  8
0
 62
     0
 10
0.170877
 20
0.752408
 30
0.0
 11
0.143316
 21
0.825444
 31
0.0
  0
LINE
  8
0
 62
     0
 10
0.143316
 20
0.825444
 30
0.0
 11
0.122645
 21
0.901238
 31
0.0
  0
LINE
  8
0
 62
     0
 10
0.122645
 20
0.901238
 30
0.0
 11
0.107487
 21
0.978408
 31
0.0
  0
LINE
  8
0
 62
     0
 10
0.107487
 20
0.978408
 30
0.0
 11
0.0978408
 21
1.05558
 31
0.0
  0
LINE
  8
0
 62
     0
 10
0.0978408
 20
1.05558
 30
0.0
 11
0.0950846
 21
1.1355
 31
0.0
  0
LINE
  8
0
 62
     0
 10
0.0950846
 20
1.1355
 30
0.0
 11
0.0950846
 21
132.96
 31
0.0
  0
LINE
  8
0
 62
     0
 10
0.0950846
 20
132.96
 30
0.0
 11
0.0978408
 21
133.038
 31
0.0
  0
LINE
  8
0
 62
     0
 10
0.0978408
 20
133.038
 30
0.0
 11
0.107487
 21
133.117
 31
0.0
  0
LINE
  8
0
 62
     0
 10
0.107487
 20
133.117
 30
0.0
 11
0.122645
 21
133.194
 31
0.0
  0
LINE
  8
0
 62
     0
 10
0.122645
 20
133.194
 30
0.0
 11
0.143316
 21
133.27
 31
0.0
  0
LINE
  8
0
 62
     0
 10
0.143316
 20
133.27
 30
0.0
 11
0.170877
 21
133.343
 31
0.0
  0
LINE
  8
0
 62
     0
 10
0.170877
 20
133.343
 30
0.0
 11
0.20395
 21
133.413
 31
0.0
  0
LINE
  8
0
 62
     0
 10
0.20395
 20
133.413
 30
0.0
 11
0.242535
 21
133.484
 31
0.0
  0
LINE
  8
0
 62
     0
 10
0.242535
 20
133.484
 30
0.0
 11
0.285254
 21
133.549
 31
0.0
  0
LINE
  8
0
 62
     0
 10
0.285254
 20
133.549
 30
0.0
 11
0.334863
 21
133.61
 31
0.0
  0
LINE
  8
0
 62
     0
 10
0.334863
 20
133.61
 30
0.0
 11
0.38723
 21
133.668
 31
0.0
  0
LINE
  8
0
 62
     0
 10
0.38723
 20
133.668
 30
0.0
 11
0.445107
 21
133.721
 31
0.0
  0
LINE
  8
0
 62
     0
 10
0.445107
 20
133.721
 30
0.0
 11
0.507118
 21
133.77
 31
0.0
  0
LINE
  8
0
 62
     0
 10
0.507118
 20
133.77
 30
0.0
 11
0.571885
 21
133.813
 31
0.0
  0
LINE
  8
0
 62
     0
 10
0.571885
 20
133.813
 30
0.0
 11
0.642165
 21
133.852
 31
0.0
  0
LINE
  8
0
 62
     0
 10
0.642165
 20
133.852
 30
0.0
 11
0.712445
 21
133.885
 31
0.0
  0
LINE
  8
0
 62
     0
 10
0.712445
 20
133.885
 30
0.0
 11
0.785481
 21
133.912
 31
0.0
  0
LINE
  8
0
 62
     0
 10
0.785481
 20
133.912
 30
0.0
 11
0.861275
 21
133.933
 31
0.0
  0
LINE
  8
0
 62
     0
 10
0.861275
 20
133.933
 30
0.0
 11
0.938445
 21
133.948
 31
0.0
  0
LINE
  8
0
 62
     0
 10
0.938445
 20
133.948
 30
0.0
 11
1.01699
 21
133.958
 31
0.0
  0
LINE
  8
0
 62
     0
 10
1.01699
 20
133.958
 30
0.0
 11
1.09554
 21
133.96
 31
0.0
  0
LINE
  8
0
 62
     0
 10
1.09554
 20
133.96
 30
0.0
 11
356.761
 21
133.96
 31
0.0
  0
LINE
  8
0
 62
     0
 10
354.764
 20
4.15618
 30
0.0
 11
354.319
 21
3.92878
 31
0.0
  0
LINE
  8
0
 62
     0
 10
354.319
 20
3.92878
 30
0.0
 11
353.963
 21
3.57463
 31
0.0
  0
LINE
  8
0
 62
     0
 10
353.963
 20
3.57463
 30
0.0
 11
353.737
 21
3.12952
 31
0.0
  0
LINE
  8
0
 62
     0
 10
353.737
 20
3.12952
 30
0.0
 11
353.66
 21
2.63343
 31
0.0
  0
LINE
  8
0
 62
     0
 10
353.66
 20
2.63343
 30
0.0
 11
353.737
 21
2.14009
 31
0.0
  0
LINE
  8
0
 62
     0
 10
353.737
 20
2.14009
 30
0.0
 11
353.963
 21
1.69361
 31
0.0
  0
LINE
  8
0
 62
     0
 10
353.963
 20
1.69361
 30
0.0
 11
354.319
 21
1.33945
 31
0.0
  0
LINE
  8
0
 62
     0
 10
354.319
 20
1.33945
 30
0.0
 11
354.764
 21
1.11345
 31
0.0
  0
LINE
  8
0
 62
     0
 10
354.764
 20
1.11345
 30
0.0
 11
355.258
 21
1.03353
 31
0.0
  0
LINE
  8
0
 62
     0
 10
355.258
 20
1.03353
 30
0.0
 11
355.752
 21
1.11345
 31
0.0
  0
LINE
  8
0
 62
     0
 10
355.752
 20
1.11345
 30
0.0
 11
356.2
 21
1.33945
 31
0.0
  0
LINE
  8
0
 62
     0
 10
356.2
 20
1.33945
 30
0.0
 11
356.553
 21
1.69361
 31
0.0
  0
LINE
  8
0
 62
     0
 10
356.553
 20
1.69361
 30
0.0
 11
356.782
 21
2.14009
 31
0.0
  0
LINE
  8
0
 62
     0
 10
356.782
 20
2.14009
 30
0.0
 11
356.859
 21
2.63343
 31
0.0
  0
LINE
  8
0
 62
     0
 10
356.859
 20
2.63343
 30
0.0
 11
356.782
 21
3.12952
 31
0.0
  0
LINE
  8
0
 62
     0
 10
356.782
 20
3.12952
 30
0.0
 11
356.553
 21
3.57463
 31
0.0
  0
LINE
  8
0
 62
     0
 10
356.553
 20
3.57463
 30
0.0
 11
356.2
 21
3.92878
 31
0.0
  0
LINE
  8
0
 62
     0
 10
356.2
 20
3.92878
 30
0.0
 11
355.752
 21
4.15618
 31
0.0
  0
LINE
  8
0
 62
     0
 10
355.752
 20
4.15618
 30
0.0
 11
355.258
 21
4.23471
 31
0.0
  0
LINE
  8
0
 62
     0
 10
355.258
 20
4.23471
 30
0.0
 11
354.764
 21
4.15618
 31
0.0
  0
LINE
  8
0
 62
     0
 10
237.21
 20
4.15618
 30
0.0
 11
236.764
 21
3.92878
 31
0.0
  0
LINE
  8
0
 62
     0
 10
236.764
 20
3.92878
 30
0.0
 11
236.409
 21
3.57463
 31
0.0
  0
LINE
  8
0
 62
     0
 10
236.409
 20
3.57463
 30
0.0
 11
236.182
 21
3.12952
 31
0.0
  0
LINE
  8
0
 62
     0
 10
236.182
 20
3.12952
 30
0.0
 11
236.105
 21
2.63343
 31
0.0
  0
LINE
  8
0
 62
     0
 10
236.105
 20
2.63343
 30
0.0
 11
236.182
 21
2.14009
 31
0.0
  0
LINE
  8
0
 62
     0
 10
236.182
 20
2.14009
 30
0.0
 11
236.409
 21
1.69361
 31
0.0
  0
LINE
  8
0
 62
     0
 10
236.409
 20
1.69361
 30
0.0
 11
236.764
 21
1.33945
 31
0.0
  0
LINE
  8
0
 62
     0
 10
236.764
 20
1.33945
 30
0.0
 11
237.21
 21
1.11345
 31
0.0
  0
LINE
  8
0
 62
     0
 10
237.21
 20
1.11345
 30
0.0
 11
237.705
 21
1.03353
 31
0.0
  0
LINE
  8
0
 62
     0
 10
237.705
 20
1.03353
 30
0.0
 11
238.198
 21
1.11345
 31
0.0
  0
LINE
  8
0
 62
     0
 10
238.198
 20
1.11345
 30
0.0
 11
238.645
 21
1.33945
 31
0.0
  0
LINE
  8
0
 62
     0
 10
238.645
 20
1.33945
 30
0.0
 11
238.999
 21
1.69361
 31
0.0
  0
LINE
  8
0
 62
     0
 10
238.999
 20
1.69361
 30
0.0
 11
239.226
 21
2.14009
 31
0.0
  0
LINE
  8
0
 62
     0
 10
239.226
 20
2.14009
 30
0.0
 11
239.305
 21
2.63343
 31
0.0
  0
LINE
  8
0
 62
     0
 10
239.305
 20
2.63343
 30
0.0
 11
239.226
 21
3.12952
 31
0.0
  0
LINE
  8
0
 62
     0
 10
239.226
 20
3.12952
 30
0.0
 11
238.999
 21
3.57463
 31
0.0
  0
LINE
  8
0
 62
     0
 10
238.999
 20
3.57463
 30
0.0
 11
238.645
 21
3.92878
 31
0.0
  0
LINE
  8
0
 62
     0
 10
238.645
 20
3.92878
 30
0.0
 11
238.198
 21
4.15618
 31
0.0
  0
LINE
  8
0
 62
     0
 10
238.198
 20
4.15618
 30
0.0
 11
237.705
 21
4.23471
 31
0.0
  0
LINE
  8
0
 62
     0
 10
237.705
 20
4.23471
 30
0.0
 11
237.21
 21
4.15618
 31
0.0
  0
LINE
  8
0
 62
     0
 10
119.655
 20
4.15618
 30
0.0
 11
119.21
 21
3.92878
 31
0.0
  0
LINE
  8
0
 62
     0
 10
119.21
 20
3.92878
 30
0.0
 11
118.856
 21
3.57463
 31
0.0
  0
LINE
  8
0
 62
     0
 10
118.856
 20
3.57463
 30
0.0
 11
118.627
 21
3.12952
 31
0.0
  0
LINE
  8
0
 62
     0
 10
118.627
 20
3.12952
 30
0.0
 11
118.55
 21
2.63343
 31
0.0
  0
LINE
  8
0
 62
     0
 10
118.55
 20
2.63343
 30
0.0
 11
118.627
 21
2.14009
 31
0.0
  0
LINE
  8
0
 62
     0
 10
118.627
 20
2.14009
 30
0.0
 11
118.856
 21
1.69361
 31
0.0
  0
LINE
  8
0
 62
     0
 10
118.856
 20
1.69361
 30
0.0
 11
119.21
 21
1.33945
 31
0.0
  0
LINE
  8
0
 62
     0
 10
119.21
 20
1.33945
 30
0.0
 11
119.655
 21
1.11345
 31
0.0
  0
LINE
  8
0
 62
     0
 10
119.655
 20
1.11345
 30
0.0
 11
120.15
 21
1.03353
 31
0.0
  0
LINE
  8
0
 62
     0
 10
120.15
 20
1.03353
 30
0.0
 11
120.643
 21
1.11345
 31
0.0
  0
LINE
  8
0
 62
     0
 10
120.643
 20
1.11345
 30
0.0
 11
121.09
 21
1.33945
 31
0.0
  0
LINE
  8
0
 62
     0
 10
121.09
 20
1.33945
 30
0.0
 11
121.444
 21
1.69361
 31
0.0
  0
LINE
  8
0
 62
     0
 10
121.444
 20
1.69361
 30
0.0
 11
121.671
 21
2.14009
 31
0.0
  0
LINE
  8
0
 62
     0
 10
121.671
 20
2.14009
 30
0.0
 11
121.75
 21
2.63343
 31
0.0
  0
LINE
  8
0
 62
     0
 10
121.75
 20
2.63343
 30
0.0
 11
121.671
 21
3.12952
 31
0.0
  0
LINE
  8
0
 62
     0
 10
121.671
 20
3.12952
 30
0.0
 11
121.444
 21
3.57463
 31
0.0
  0
LINE
  8
0
 62
     0
 10
121.444
 20
3.57463
 30
0.0
 11
121.09
 21
3.92878
 31
0.0
  0
LINE
  8
0
 62
     0
 10
121.09
 20
3.92878
 30
0.0
 11
120.643
 21
4.15618
 31
0.0
  0
LINE
  8
0
 62
     0
 10
120.643
 20
4.15618
 30
0.0
 11
120.15
 21
4.23471
 31
0.0
  0
LINE
  8
0
 62
     0
 10
120.15
 20
4.23471
 30
0.0
 11
119.655
 21
4.15618
 31
0.0
  0
LINE
  8
0
 62
     0
 10
2.10013
 20
4.15618
 30
0.0
 11
1.65503
 21
3.92878
 31
0.0
  0
LINE
  8
0
 62
     0
 10
1.65503
 20
3.92878
 30
0.0
 11
1.30087
 21
3.57463
 31
0.0
  0
LINE
  8
0
 62
     0
 10
1.30087
 20
3.57463
 30
0.0
 11
1.07349
 21
3.12952
 31
0.0
  0
LINE
  8
0
 62
     0
 10
1.07349
 20
3.12952
 30
0.0
 11
0.994943
 21
2.63343
 31
0.0
  0
LINE
  8
0
 62
     0
 10
0.994943
 20
2.63343
 30
0.0
 11
1.07349
 21
2.14009
 31
0.0
  0
LINE
  8
0
 62
     0
 10
1.07349
 20
2.14009
 30
0.0
 11
1.30087
 21
1.69361
 31
0.0
  0
LINE
  8
0
 62
     0
 10
1.30087
 20
1.69361
 30
0.0
 11
1.65503
 21
1.33945
 31
0.0
  0
LINE
  8
0
 62
     0
 10
1.65503
 20
1.33945
 30
0.0
 11
2.10013
 21
1.11345
 31
0.0
  0
LINE
  8
0
 62
     0
 10
2.10013
 20
1.11345
 30
0.0
 11
2.59485
 21
1.03353
 31
0.0
  0
LINE
  8
0
 62
     0
 10
2.59485
 20
1.03353
 30
0.0
 11
3.08956
 21
1.11345
 31
0.0
  0
LINE
  8
0
 62
     0
 10
3.08956
 20
1.11345
 30
0.0
 11
3.53603
 21
1.33945
 31
0.0
  0
LINE
  8
0
 62
     0
 10
3.53603
 20
1.33945
 30
0.0
 11
3.88881
 21
1.69361
 31
0.0
  0
LINE
  8
0
 62
     0
 10
3.88881
 20
1.69361
 30
0.0
 11
4.11621
 21
2.14009
 31
0.0
  0
LINE
  8
0
 62
     0
 10
4.11621
 20
2.14009
 30
0.0
 11
4.19612
 21
2.63343
 31
0.0
  0
LINE
  8
0
 62
     0
 10
4.19612
 20
2.63343
 30
0.0
 11
4.11621
 21
3.12952
 31
0.0
  0
LINE
  8
0
 62
     0
 10
4.11621
 20
3.12952
 30
0.0
 11
3.88881
 21
3.57463
 31
0.0
  0
LINE
  8
0
 62
     0
 10
3.88881
 20
3.57463
 30
0.0
 11
3.53603
 21
3.92878
 31
0.0
  0
LINE
  8
0
 62
     0
 10
3.53603
 20
3.92878
 30
0.0
 11
3.08956
 21
4.15618
 31
0.0
  0
LINE
  8
0
 62
     0
 10
3.08956
 20
4.15618
 30
0.0
 11
2.59485
 21
4.23471
 31
0.0
  0
LINE
  8
0
 62
     0
 10
2.59485
 20
4.23471
 30
0.0
 11
2.10013
 21
4.15618
 31
0.0
  0
LINE
  8
0
 62
     0
 10
119.655
 20
132.982
 30
0.0
 11
119.21
 21
132.755
 31
0.0
  0
LINE
  8
0
 62
     0
 10
119.21
 20
132.755
 30
0.0
 11
118.856
 21
132.401
 31
0.0
  0
LINE
  8
0
 62
     0
 10
118.856
 20
132.401
 30
0.0
 11
118.627
 21
131.955
 31
0.0
  0
LINE
  8
0
 62
     0
 10
118.627
 20
131.955
 30
0.0
 11
118.55
 21
131.461
 31
0.0
  0
LINE
  8
0
 62
     0
 10
118.55
 20
131.461
 30
0.0
 11
118.627
 21
130.966
 31
0.0
  0
LINE
  8
0
 62
     0
 10
118.627
 20
130.966
 30
0.0
 11
118.856
 21
130.52
 31
0.0
  0
LINE
  8
0
 62
     0
 10
118.856
 20
130.52
 30
0.0
 11
119.21
 21
130.167
 31
0.0
  0
LINE
  8
0
 62
     0
 10
119.21
 20
130.167
 30
0.0
 11
119.655
 21
129.939
 31
0.0
  0
LINE
  8
0
 62
     0
 10
119.655
 20
129.939
 30
0.0
 11
120.15
 21
129.859
 31
0.0
  0
LINE
  8
0
 62
     0
 10
120.15
 20
129.859
 30
0.0
 11
120.643
 21
129.939
 31
0.0
  0
LINE
  8
0
 62
     0
 10
120.643
 20
129.939
 30
0.0
 11
121.09
 21
130.167
 31
0.0
  0
LINE
  8
0
 62
     0
 10
121.09
 20
130.167
 30
0.0
 11
121.444
 21
130.52
 31
0.0
  0
LINE
  8
0
 62
     0
 10
121.444
 20
130.52
 30
0.0
 11
121.671
 21
130.966
 31
0.0
  0
LINE
  8
0
 62
     0
 10
121.671
 20
130.966
 30
0.0
 11
121.75
 21
131.461
 31
0.0
  0
LINE
  8
0
 62
     0
 10
121.75
 20
131.461
 30
0.0
 11
121.671
 21
131.955
 31
0.0
  0
LINE
  8
0
 62
     0
 10
121.671
 20
131.955
 30
0.0
 11
121.444
 21
132.401
 31
0.0
  0
LINE
  8
0
 62
     0
 10
121.444
 20
132.401
 30
0.0
 11
121.09
 21
132.755
 31
0.0
  0
LINE
  8
0
 62
     0
 10
121.09
 20
132.755
 30
0.0
 11
120.643
 21
132.982
 31
0.0
  0
LINE
  8
0
 62
     0
 10
120.643
 20
132.982
 30
0.0
 11
120.15
 21
133.061
 31
0.0
  0
LINE
  8
0
 62
     0
 10
120.15
 20
133.061
 30
0.0
 11
119.655
 21
132.982
 31
0.0
  0
LINE
  8
0
 62
     0
 10
237.21
 20
132.982
 30
0.0
 11
236.764
 21
132.755
 31
0.0
  0
LINE
  8
0
 62
     0
 10
236.764
 20
132.755
 30
0.0
 11
236.409
 21
132.401
 31
0.0
  0
LINE
  8
0
 62
     0
 10
236.409
 20
132.401
 30
0.0
 11
236.182
 21
131.955
 31
0.0
  0
LINE
  8
0
 62
     0
 10
236.182
 20
131.955
 30
0.0
 11
236.105
 21
131.461
 31
0.0
  0
LINE
  8
0
 62
     0
 10
236.105
 20
131.461
 30
0.0
 11
236.182
 21
130.966
 31
0.0
  0
LINE
  8
0
 62
     0
 10
236.182
 20
130.966
 30
0.0
 11
236.409
 21
130.52
 31
0.0
  0
LINE
  8
0
 62
     0
 10
236.409
 20
130.52
 30
0.0
 11
236.764
 21
130.167
 31
0.0
  0
LINE
  8
0
 62
     0
 10
236.764
 20
130.167
 30
0.0
 11
237.21
 21
129.939
 31
0.0
  0
LINE
  8
0
 62
     0
 10
237.21
 20
129.939
 30
0.0
 11
237.705
 21
129.859
 31
0.0
  0
LINE
  8
0
 62
     0
 10
237.705
 20
129.859
 30
0.0
 11
238.198
 21
129.939
 31
0.0
  0
LINE
  8
0
 62
     0
 10
238.198
 20
129.939
 30
0.0
 11
238.645
 21
130.167
 31
0.0
  0
LINE
  8
0
 62
     0
 10
238.645
 20
130.167
 30
0.0
 11
238.999
 21
130.52
 31
0.0
  0
LINE
  8
0
 62
     0
 10
238.999
 20
130.52
 30
0.0
 11
239.226
 21
130.966
 31
0.0
  0
LINE
  8
0
 62
     0
 10
239.226
 20
130.966
 30
0.0
 11
239.305
 21
131.461
 31
0.0
  0
LINE
  8
0
 62
     0
 10
239.305
 20
131.461
 30
0.0
 11
239.226
 21
131.955
 31
0.0
  0
LINE
  8
0
 62
     0
 10
239.226
 20
131.955
 30
0.0
 11
238.999
 21
132.401
 31
0.0
  0
LINE
  8
0
 62
     0
 10
238.999
 20
132.401
 30
0.0
 11
238.645
 21
132.755
 31
0.0
  0
LINE
  8
0
 62
     0
 10
238.645
 20
132.755
 30
0.0
 11
238.198
 21
132.982
 31
0.0
  0
LINE
  8
0
 62
     0
 10
238.198
 20
132.982
 30
0.0
 11
237.705
 21
133.061
 31
0.0
  0
LINE
  8
0
 62
     0
 10
237.705
 20
133.061
 30
0.0
 11
237.21
 21
132.982
 31
0.0
  0
LINE
  8
0
 62
     0
 10
354.764
 20
132.982
 30
0.0
 11
354.319
 21
132.755
 31
0.0
  0
LINE
  8
0
 62
     0
 10
354.319
 20
132.755
 30
0.0
 11
353.963
 21
132.401
 31
0.0
  0
LINE
  8
0
 62
     0
 10
353.963
 20
132.401
 30
0.0
 11
353.737
 21
131.955
 31
0.0
  0
LINE
  8
0
 62
     0
 10
353.737
 20
131.955
 30
0.0
 11
353.66
 21
131.461
 31
0.0
  0
LINE
  8
0
 62
     0
 10
353.66
 20
131.461
 30
0.0
 11
353.737
 21
130.966
 31
0.0
  0
LINE
  8
0
 62
     0
 10
353.737
 20
130.966
 30
0.0
 11
353.963
 21
130.52
 31
0.0
  0
LINE
  8
0
 62
     0
 10
353.963
 20
130.52
 30
0.0
 11
354.319
 21
130.167
 31
0.0
  0
LINE
  8
0
 62
     0
 10
354.319
 20
130.167
 30
0.0
 11
354.764
 21
129.939
 31
0.0
  0
LINE
  8
0
 62
     0
 10
354.764
 20
129.939
 30
0.0
 11
355.258
 21
129.859
 31
0.0
  0
LINE
  8
0
 62
     0
 10
355.258
 20
129.859
 30
0.0
 11
355.752
 21
129.939
 31
0.0
  0
LINE
  8
0
 62
     0
 10
355.752
 20
129.939
 30
0.0
 11
356.2
 21
130.167
 31
0.0
  0
LINE
  8
0
 62
     0
 10
356.2
 20
130.167
 30
0.0
 11
356.553
 21
130.52
 31
0.0
  0
LINE
  8
0
 62
     0
 10
356.553
 20
130.52
 30
0.0
 11
356.782
 21
130.966
 31
0.0
  0
LINE
  8
0
 62
     0
 10
356.782
 20
130.966
 30
0.0
 11
356.859
 21
131.461
 31
0.0
  0
LINE
  8
0
 62
     0
 10
356.859
 20
131.461
 30
0.0
 11
356.782
 21
131.955
 31
0.0
  0
LINE
  8
0
 62
     0
 10
356.782
 20
131.955
 30
0.0
 11
356.553
 21
132.401
 31
0.0
  0
LINE
  8
0
 62
     0
 10
356.553
 20
132.401
 30
0.0
 11
356.2
 21
132.755
 31
0.0
  0
LINE
  8
0
 62
     0
 10
356.2
 20
132.755
 30
0.0
 11
355.752
 21
132.982
 31
0.0
  0
LINE
  8
0
 62
     0
 10
355.752
 20
132.982
 30
0.0
 11
355.258
 21
133.061
 31
0.0
  0
LINE
  8
0
 62
     0
 10
355.258
 20
133.061
 30
0.0
 11
354.764
 21
132.982
 31
0.0
  0
LINE
  8
0
 62
     0
 10
2.10013
 20
132.982
 30
0.0
 11
1.65503
 21
132.755
 31
0.0
  0
LINE
  8
0
 62
     0
 10
1.65503
 20
132.755
 30
0.0
 11
1.30087
 21
132.401
 31
0.0
  0
LINE
  8
0
 62
     0
 10
1.30087
 20
132.401
 30
0.0
 11
1.07349
 21
131.955
 31
0.0
  0
LINE
  8
0
 62
     0
 10
1.07349
 20
131.955
 30
0.0
 11
0.994943
 21
131.461
 31
0.0
  0
LINE
  8
0
 62
     0
 10
0.994943
 20
131.461
 30
0.0
 11
1.07349
 21
130.966
 31
0.0
  0
LINE
  8
0
 62
     0
 10
1.07349
 20
130.966
 30
0.0
 11
1.30087
 21
130.52
 31
0.0
  0
LINE
  8
0
 62
     0
 10
1.30087
 20
130.52
 30
0.0
 11
1.65503
 21
130.167
 31
0.0
  0
LINE
  8
0
 62
     0
 10
1.65503
 20
130.167
 30
0.0
 11
2.10013
 21
129.939
 31
0.0
  0
LINE
  8
0
 62
     0
 10
2.10013
 20
129.939
 30
0.0
 11
2.59485
 21
129.859
 31
0.0
  0
LINE
  8
0
 62
     0
 10
2.59485
 20
129.859
 30
0.0
 11
3.08956
 21
129.939
 31
0.0
  0
LINE
  8
0
 62
     0
 10
3.08956
 20
129.939
 30
0.0
 11
3.53603
 21
130.167
 31
0.0
  0
LINE
  8
0
 62
     0
 10
3.53603
 20
130.167
 30
0.0
 11
3.88881
 21
130.52
 31
0.0
  0
LINE
  8
0
 62
     0
 10
3.88881
 20
130.52
 30
0.0
 11
4.11621
 21
130.966
 31
0.0
  0
LINE
  8
0
 62
     0
 10
4.11621
 20
130.966
 30
0.0
 11
4.19612
 21
131.461
 31
0.0
  0
LINE
  8
0
 62
     0
 10
4.19612
 20
131.461
 30
0.0
 11
4.11621
 21
131.955
 31
0.0
  0
LINE
  8
0
 62
     0
 10
4.11621
 20
131.955
 30
0.0
 11
3.88881
 21
132.401
 31
0.0
  0
LINE
  8
0
 62
     0
 10
3.88881
 20
132.401
 30
0.0
 11
3.53603
 21
132.755
 31
0.0
  0
LINE
  8
0
 62
     0
 10
3.53603
 20
132.755
 30
0.0
 11
3.08956
 21
132.982
 31
0.0
  0
LINE
  8
0
 62
     0
 10
3.08956
 20
132.982
 30
0.0
 11
2.59485
 21
133.061
 31
0.0
  0
LINE
  8
0
 62
     0
 10
2.59485
 20
133.061
 30
0.0
 11
2.10013
 21
132.982
 31
0.0
  0
ENDSEC
  0
EOF
